<svg xmlns="http://www.w3.org/2000/svg" width="800" height="516" viewBox="0 0 800 516" role="img" aria-label="Springtrail played through: title, Start, a run, a jump over a gap, a pause and resume, then a run into a patrol; every frame from the independent game reference">
<title>Springtrail played through: title, Start, a run, a jump over a gap, a pause and resume, then a run into a patrol; every frame from the independent game reference</title><style>text{font:13px ui-monospace,Consolas,"Liberation Mono",Menlo,monospace;fill:#e4eaf2}.h{font-size:11px;fill:#a9b6c7}g[class^="k"] rect{fill:#171c24}@keyframes f0{0%,11.99%{opacity:1}12.05%,100%{opacity:0}}@keyframes g0{0%,11.99%{opacity:1}12.05%,100%{opacity:0}}@keyframes f1{0%,11.99%{opacity:0}12.05%,18.01%{opacity:1}18.07%,100%{opacity:0}}@keyframes g1{0%,11.99%{opacity:0}12.05%,18.01%{opacity:1}18.07%,100%{opacity:0}}@keyframes f2{0%,18.01%{opacity:0}18.07%,27.65%{opacity:1}27.71%,100%{opacity:0}}@keyframes g2{0%,18.01%{opacity:0}18.07%,27.65%{opacity:1}27.71%,100%{opacity:0}}@keyframes f3{0%,27.65%{opacity:0}27.71%,40.9%{opacity:1}40.96%,100%{opacity:0}}@keyframes g3{0%,27.65%{opacity:0}27.71%,40.9%{opacity:1}40.96%,100%{opacity:0}}@keyframes f4{0%,40.9%{opacity:0}40.96%,46.93%{opacity:1}46.99%,100%{opacity:0}}@keyframes g4{0%,40.9%{opacity:0}40.96%,46.93%{opacity:1}46.99%,100%{opacity:0}}@keyframes f5{0%,46.93%{opacity:0}46.99%,57.77%{opacity:1}57.83%,100%{opacity:0}}@keyframes g5{0%,46.93%{opacity:0}46.99%,57.77%{opacity:1}57.83%,100%{opacity:0}}@keyframes f6{0%,57.77%{opacity:0}57.83%,63.8%{opacity:1}63.86%,100%{opacity:0}}@keyframes g6{0%,57.77%{opacity:0}57.83%,63.8%{opacity:1}63.86%,100%{opacity:0}}@keyframes f7{0%,63.8%{opacity:0}63.86%,72.23%{opacity:1}72.29%,100%{opacity:0}}@keyframes g7{0%,63.8%{opacity:0}63.86%,72.23%{opacity:1}72.29%,100%{opacity:0}}@keyframes f8{0%,72.23%{opacity:0}72.29%,78.25%{opacity:1}78.31%,100%{opacity:0}}@keyframes g8{0%,72.23%{opacity:0}72.29%,78.25%{opacity:1}78.31%,100%{opacity:0}}@keyframes f9{0%,78.25%{opacity:0}78.31%,85.48%{opacity:1}85.54%,100%{opacity:0}}@keyframes g9{0%,78.25%{opacity:0}78.31%,85.48%{opacity:1}85.54%,100%{opacity:0}}@keyframes f10{0%,85.48%{opacity:0}85.54%,100%{opacity:1}}@keyframes g10{0%,85.48%{opacity:0}85.54%,100%{opacity:1}}@keyframes mv33{0%,18.01%{opacity:0}18.07%,27.65%{opacity:1}27.71%,46.93%{opacity:0}46.99%,57.77%{opacity:1}57.83%,63.8%{opacity:1}63.86%,72.23%{opacity:0}72.29%,78.25%{opacity:1}78.31%,85.48%{opacity:1}85.54%,100%{opacity:0}}@keyframes mv49{0%,63.8%{opacity:0}63.86%,72.23%{opacity:1}72.29%,100%{opacity:0}}@keyframes mv128{0%,11.99%{opacity:0}12.05%,18.01%{opacity:1}18.07%,27.65%{opacity:0}27.71%,40.9%{opacity:1}40.96%,46.93%{opacity:1}46.99%,100%{opacity:0}}@keyframes kr0{0%,18.01%{fill:#171c24}18.07%,27.65%{fill:#93e7bd}27.71%,46.93%{fill:#171c24}46.99%,57.77%{fill:#93e7bd}57.83%,63.8%{fill:#93e7bd}63.86%,72.23%{fill:#93e7bd}72.29%,78.25%{fill:#93e7bd}78.31%,85.48%{fill:#93e7bd}85.54%,100%{fill:#171c24}}@keyframes kt0{0%,18.01%{fill:#e4eaf2}18.07%,27.65%{fill:#171c24}27.71%,46.93%{fill:#e4eaf2}46.99%,57.77%{fill:#171c24}57.83%,63.8%{fill:#171c24}63.86%,72.23%{fill:#171c24}72.29%,78.25%{fill:#171c24}78.31%,85.48%{fill:#171c24}85.54%,100%{fill:#e4eaf2}}@keyframes kr4{0%,63.8%{fill:#171c24}63.86%,72.23%{fill:#93e7bd}72.29%,100%{fill:#171c24}}@keyframes kt4{0%,63.8%{fill:#e4eaf2}63.86%,72.23%{fill:#171c24}72.29%,100%{fill:#e4eaf2}}@keyframes kr5{0%,18.01%{fill:#171c24}18.07%,27.65%{fill:#93e7bd}27.71%,46.93%{fill:#171c24}46.99%,57.77%{fill:#93e7bd}57.83%,63.8%{fill:#93e7bd}63.86%,72.23%{fill:#93e7bd}72.29%,78.25%{fill:#93e7bd}78.31%,85.48%{fill:#93e7bd}85.54%,100%{fill:#171c24}}@keyframes kt5{0%,18.01%{fill:#e4eaf2}18.07%,27.65%{fill:#171c24}27.71%,46.93%{fill:#e4eaf2}46.99%,57.77%{fill:#171c24}57.83%,63.8%{fill:#171c24}63.86%,72.23%{fill:#171c24}72.29%,78.25%{fill:#171c24}78.31%,85.48%{fill:#171c24}85.54%,100%{fill:#e4eaf2}}@keyframes kr7{0%,11.99%{fill:#171c24}12.05%,18.01%{fill:#93e7bd}18.07%,27.65%{fill:#171c24}27.71%,40.9%{fill:#93e7bd}40.96%,46.93%{fill:#93e7bd}46.99%,100%{fill:#171c24}}@keyframes kt7{0%,11.99%{fill:#e4eaf2}12.05%,18.01%{fill:#171c24}18.07%,27.65%{fill:#e4eaf2}27.71%,40.9%{fill:#171c24}40.96%,46.93%{fill:#171c24}46.99%,100%{fill:#e4eaf2}}@media (prefers-reduced-motion:no-preference){.f0{animation:f0 16.599999999999998s step-end infinite}.g0{animation:g0 16.599999999999998s step-end infinite}.f1{animation:f1 16.599999999999998s step-end infinite}.g1{animation:g1 16.599999999999998s step-end infinite}.f2{animation:f2 16.599999999999998s step-end infinite}.g2{animation:g2 16.599999999999998s step-end infinite}.f3{animation:f3 16.599999999999998s step-end infinite}.g3{animation:g3 16.599999999999998s step-end infinite}.f4{animation:f4 16.599999999999998s step-end infinite}.g4{animation:g4 16.599999999999998s step-end infinite}.f5{animation:f5 16.599999999999998s step-end infinite}.g5{animation:g5 16.599999999999998s step-end infinite}.f6{animation:f6 16.599999999999998s step-end infinite}.g6{animation:g6 16.599999999999998s step-end infinite}.f7{animation:f7 16.599999999999998s step-end infinite}.g7{animation:g7 16.599999999999998s step-end infinite}.f8{animation:f8 16.599999999999998s step-end infinite}.g8{animation:g8 16.599999999999998s step-end infinite}.f9{animation:f9 16.599999999999998s step-end infinite}.g9{animation:g9 16.599999999999998s step-end infinite}.f10{animation:f10 16.599999999999998s step-end infinite}.g10{animation:g10 16.599999999999998s step-end infinite}.mv33{animation:mv33 16.599999999999998s step-end infinite}.mv49{animation:mv49 16.599999999999998s step-end infinite}.mv128{animation:mv128 16.599999999999998s step-end infinite}.k0 rect{animation:kr0 16.599999999999998s step-end infinite}.k0 text{animation:kt0 16.599999999999998s step-end infinite}.k4 rect{animation:kr4 16.599999999999998s step-end infinite}.k4 text{animation:kt4 16.599999999999998s step-end infinite}.k5 rect{animation:kr5 16.599999999999998s step-end infinite}.k5 text{animation:kt5 16.599999999999998s step-end infinite}.k7 rect{animation:kr7 16.599999999999998s step-end infinite}.k7 text{animation:kt7 16.599999999999998s step-end infinite}}</style>
<rect x=".5" y=".5" width="799" height="515" rx="10" fill="#171c24" stroke="#303a48"/>
<path d="M0 30.5H800" stroke="#303a48"/>
<circle cx="18" cy="15" r="5" fill="#ff5f57"/><circle cx="36" cy="15" r="5" fill="#febc2e"/><circle cx="54" cy="15" r="5" fill="#28c840"/>
<text class="h" x="400.0" y="19" text-anchor="middle">Springtrail on the Game Boy screen · 160 × 144 · played at one tenth speed</text>
<g transform="translate(16 46) scale(3)" shape-rendering="crispEdges">
<rect width="160" height="144" fill="#ffffff"/>
<g class="f0" opacity="0"><path fill="#686868" d="M10 1h3v1h-3zM18 1h3v1h-3zM26 1h3v1h-3zM34 1h1v1h-1zM42 1h3v1h-3zM99 1h2v1h-2zM107 1h2v1h-2zM115 1h1v1h-1zM122 1h2v1h-2zM130 1h3v1h-3zM146 1h3v1h-3zM11 2h1v1h-1zM19 2h1v1h-1zM27 2h1v1h-1zM34 2h1v1h-1zM42 2h1v1h-1zM98 2h1v1h-1zM106 2h1v1h-1zM114 2h1v1h-1zM116 2h1v1h-1zM122 2h1v1h-1zM124 2h1v1h-1zM130 2h1v1h-1zM146 2h1v1h-1zM148 2h1v1h-1zM11 3h1v1h-1zM19 3h1v1h-1zM27 3h1v1h-1zM34 3h1v1h-1zM42 3h2v1h-2zM99 3h1v1h-1zM106 3h1v1h-1zM114 3h1v1h-1zM116 3h1v1h-1zM122 3h2v1h-2zM130 3h2v1h-2zM146 3h1v1h-1zM148 3h1v1h-1zM11 4h1v1h-1zM19 4h1v1h-1zM27 4h1v1h-1zM34 4h1v1h-1zM42 4h1v1h-1zM100 4h1v1h-1zM106 4h1v1h-1zM114 4h1v1h-1zM116 4h1v1h-1zM122 4h1v1h-1zM124 4h1v1h-1zM130 4h1v1h-1zM146 4h1v1h-1zM148 4h1v1h-1zM11 5h1v1h-1zM18 5h3v1h-3zM27 5h1v1h-1zM34 5h3v1h-3zM42 5h3v1h-3zM98 5h2v1h-2zM107 5h2v1h-2zM115 5h1v1h-1zM122 5h1v1h-1zM124 5h1v1h-1zM130 5h3v1h-3zM146 5h3v1h-3zM34 40h3v1h-3zM41 40h4v1h-4zM49 40h4v1h-4zM57 40h5v1h-5zM65 40h1v1h-1zM69 40h1v1h-1zM74 40h3v1h-3zM81 40h5v1h-5zM89 40h4v1h-4zM98 40h3v1h-3zM105 40h5v1h-5zM113 40h1v1h-1zM33 41h1v1h-1zM41 41h1v1h-1zM45 41h1v1h-1zM49 41h1v1h-1zM53 41h1v1h-1zM59 41h1v1h-1zM65 41h2v1h-2zM69 41h1v1h-1zM73 41h1v1h-1zM77 41h1v1h-1zM83 41h1v1h-1zM89 41h1v1h-1zM93 41h1v1h-1zM97 41h1v1h-1zM101 41h1v1h-1zM107 41h1v1h-1zM113 41h1v1h-1zM33 42h1v1h-1zM41 42h1v1h-1zM45 42h1v1h-1zM49 42h1v1h-1zM53 42h1v1h-1zM59 42h1v1h-1zM65 42h2v1h-2zM69 42h1v1h-1zM73 42h1v1h-1zM83 42h1v1h-1zM89 42h1v1h-1zM93 42h1v1h-1zM97 42h1v1h-1zM101 42h1v1h-1zM107 42h1v1h-1zM113 42h1v1h-1zM34 43h3v1h-3zM41 43h4v1h-4zM49 43h4v1h-4zM59 43h1v1h-1zM65 43h1v1h-1zM67 43h1v1h-1zM69 43h1v1h-1zM73 43h1v1h-1zM75 43h3v1h-3zM83 43h1v1h-1zM89 43h4v1h-4zM97 43h5v1h-5zM107 43h1v1h-1zM113 43h1v1h-1zM37 44h1v1h-1zM41 44h1v1h-1zM49 44h1v1h-1zM51 44h1v1h-1zM59 44h1v1h-1zM65 44h1v1h-1zM68 44h2v1h-2zM73 44h1v1h-1zM77 44h1v1h-1zM83 44h1v1h-1zM89 44h1v1h-1zM91 44h1v1h-1zM97 44h1v1h-1zM101 44h1v1h-1zM107 44h1v1h-1zM113 44h1v1h-1zM37 45h1v1h-1zM41 45h1v1h-1zM49 45h1v1h-1zM52 45h1v1h-1zM59 45h1v1h-1zM65 45h1v1h-1zM68 45h2v1h-2zM73 45h1v1h-1zM77 45h1v1h-1zM83 45h1v1h-1zM89 45h1v1h-1zM92 45h1v1h-1zM97 45h1v1h-1zM101 45h1v1h-1zM107 45h1v1h-1zM113 45h1v1h-1zM33 46h4v1h-4zM41 46h1v1h-1zM49 46h1v1h-1zM53 46h1v1h-1zM57 46h5v1h-5zM65 46h1v1h-1zM69 46h1v1h-1zM74 46h3v1h-3zM83 46h1v1h-1zM89 46h1v1h-1zM93 46h1v1h-1zM97 46h1v1h-1zM101 46h1v1h-1zM105 46h5v1h-5zM113 46h5v1h-5zM33 56h4v1h-4zM41 56h4v1h-4zM49 56h5v1h-5zM58 56h3v1h-3zM66 56h3v1h-3zM82 56h3v1h-3zM89 56h5v1h-5zM98 56h3v1h-3zM105 56h4v1h-4zM113 56h5v1h-5zM33 57h1v1h-1zM37 57h1v1h-1zM41 57h1v1h-1zM45 57h1v1h-1zM49 57h1v1h-1zM57 57h1v1h-1zM65 57h1v1h-1zM81 57h1v1h-1zM91 57h1v1h-1zM97 57h1v1h-1zM101 57h1v1h-1zM105 57h1v1h-1zM109 57h1v1h-1zM115 57h1v1h-1zM33 58h1v1h-1zM37 58h1v1h-1zM41 58h1v1h-1zM45 58h1v1h-1zM49 58h1v1h-1zM57 58h1v1h-1zM65 58h1v1h-1zM81 58h1v1h-1zM91 58h1v1h-1zM97 58h1v1h-1zM101 58h1v1h-1zM105 58h1v1h-1zM109 58h1v1h-1zM115 58h1v1h-1zM33 59h4v1h-4zM41 59h4v1h-4zM49 59h4v1h-4zM58 59h3v1h-3zM66 59h3v1h-3zM82 59h3v1h-3zM91 59h1v1h-1zM97 59h5v1h-5zM105 59h4v1h-4zM115 59h1v1h-1zM33 60h1v1h-1zM41 60h1v1h-1zM43 60h1v1h-1zM49 60h1v1h-1zM61 60h1v1h-1zM69 60h1v1h-1zM85 60h1v1h-1zM91 60h1v1h-1zM97 60h1v1h-1zM101 60h1v1h-1zM105 60h1v1h-1zM107 60h1v1h-1zM115 60h1v1h-1zM33 61h1v1h-1zM41 61h1v1h-1zM44 61h1v1h-1zM49 61h1v1h-1zM61 61h1v1h-1zM69 61h1v1h-1zM85 61h1v1h-1zM91 61h1v1h-1zM97 61h1v1h-1zM101 61h1v1h-1zM105 61h1v1h-1zM108 61h1v1h-1zM115 61h1v1h-1zM33 62h1v1h-1zM41 62h1v1h-1zM45 62h1v1h-1zM49 62h5v1h-5zM57 62h4v1h-4zM65 62h4v1h-4zM81 62h4v1h-4zM91 62h1v1h-1zM97 62h1v1h-1zM101 62h1v1h-1zM105 62h1v1h-1zM109 62h1v1h-1zM115 62h1v1h-1zM99 89h1v1h-1zM98 90h3v1h-3zM97 91h5v1h-5zM98 92h3v1h-3zM99 93h1v1h-1zM80 96h40v1h-40zM80 97h40v1h-40zM80 98h1v1h-1zM82 98h3v1h-3zM86 98h3v1h-3zM90 98h3v1h-3zM94 98h3v1h-3zM98 98h3v1h-3zM102 98h3v1h-3zM106 98h3v1h-3zM110 98h3v1h-3zM114 98h3v1h-3zM118 98h2v1h-2zM80 99h40v1h-40zM80 100h4v1h-4zM85 100h7v1h-7zM93 100h7v1h-7zM101 100h7v1h-7zM109 100h7v1h-7zM117 100h3v1h-3zM80 101h2v1h-2zM83 101h7v1h-7zM91 101h7v1h-7zM99 101h7v1h-7zM107 101h7v1h-7zM115 101h5v1h-5zM80 102h6v1h-6zM87 102h7v1h-7zM95 102h7v1h-7zM103 102h7v1h-7zM111 102h7v1h-7zM119 102h1v1h-1zM80 103h40v1h-40zM25 112h5v1h-5zM24 113h7v1h-7zM23 114h9v1h-9zM23 115h10v1h-10zM24 116h7v1h-7zM23 117h9v1h-9zM23 118h9v1h-9zM24 119h7v1h-7zM23 120h8v1h-8zM22 121h11v1h-11zM22 122h11v1h-11zM23 123h9v1h-9zM24 124h8v1h-8zM24 125h3v1h-3zM29 125h3v1h-3zM23 126h4v1h-4zM29 126h4v1h-4zM23 127h4v1h-4zM29 127h4v1h-4zM0 128h160v1h-160zM0 129h160v1h-160zM0 130h1v1h-1zM2 130h3v1h-3zM6 130h3v1h-3zM10 130h3v1h-3zM14 130h3v1h-3zM18 130h3v1h-3zM22 130h3v1h-3zM26 130h3v1h-3zM30 130h3v1h-3zM34 130h3v1h-3zM38 130h3v1h-3zM42 130h3v1h-3zM46 130h3v1h-3zM50 130h3v1h-3zM54 130h3v1h-3zM58 130h3v1h-3zM62 130h3v1h-3zM66 130h3v1h-3zM70 130h3v1h-3zM74 130h3v1h-3zM78 130h3v1h-3zM82 130h3v1h-3zM86 130h3v1h-3zM90 130h3v1h-3zM94 130h3v1h-3zM98 130h3v1h-3zM102 130h3v1h-3zM106 130h3v1h-3zM110 130h3v1h-3zM114 130h3v1h-3zM118 130h3v1h-3zM122 130h3v1h-3zM126 130h3v1h-3zM130 130h3v1h-3zM134 130h3v1h-3zM138 130h3v1h-3zM142 130h3v1h-3zM146 130h3v1h-3zM150 130h3v1h-3zM154 130h3v1h-3zM158 130h2v1h-2zM0 131h160v1h-160zM0 132h4v1h-4zM5 132h7v1h-7zM13 132h7v1h-7zM21 132h7v1h-7zM29 132h7v1h-7zM37 132h7v1h-7zM45 132h7v1h-7zM53 132h7v1h-7zM61 132h7v1h-7zM69 132h7v1h-7zM77 132h7v1h-7zM85 132h7v1h-7zM93 132h7v1h-7zM101 132h7v1h-7zM109 132h7v1h-7zM117 132h7v1h-7zM125 132h7v1h-7zM133 132h7v1h-7zM141 132h7v1h-7zM149 132h7v1h-7zM157 132h3v1h-3zM0 133h2v1h-2zM3 133h7v1h-7zM11 133h7v1h-7zM19 133h7v1h-7zM27 133h7v1h-7zM35 133h7v1h-7zM43 133h7v1h-7zM51 133h7v1h-7zM59 133h7v1h-7zM67 133h7v1h-7zM75 133h7v1h-7zM83 133h7v1h-7zM91 133h7v1h-7zM99 133h7v1h-7zM107 133h7v1h-7zM115 133h7v1h-7zM123 133h7v1h-7zM131 133h7v1h-7zM139 133h7v1h-7zM147 133h7v1h-7zM155 133h5v1h-5zM0 134h6v1h-6zM7 134h7v1h-7zM15 134h7v1h-7zM23 134h7v1h-7zM31 134h7v1h-7zM39 134h7v1h-7zM47 134h7v1h-7zM55 134h7v1h-7zM63 134h7v1h-7zM71 134h7v1h-7zM79 134h7v1h-7zM87 134h7v1h-7zM95 134h7v1h-7zM103 134h7v1h-7zM111 134h7v1h-7zM119 134h7v1h-7zM127 134h7v1h-7zM135 134h7v1h-7zM143 134h7v1h-7zM151 134h7v1h-7zM159 134h1v1h-1zM0 135h160v1h-160zM0 136h160v1h-160zM0 137h160v1h-160zM0 138h1v1h-1zM2 138h3v1h-3zM6 138h3v1h-3zM10 138h3v1h-3zM14 138h3v1h-3zM18 138h3v1h-3zM22 138h3v1h-3zM26 138h3v1h-3zM30 138h3v1h-3zM34 138h3v1h-3zM38 138h3v1h-3zM42 138h3v1h-3zM46 138h3v1h-3zM50 138h3v1h-3zM54 138h3v1h-3zM58 138h3v1h-3zM62 138h3v1h-3zM66 138h3v1h-3zM70 138h3v1h-3zM74 138h3v1h-3zM78 138h3v1h-3zM82 138h3v1h-3zM86 138h3v1h-3zM90 138h3v1h-3zM94 138h3v1h-3zM98 138h3v1h-3zM102 138h3v1h-3zM106 138h3v1h-3zM110 138h3v1h-3zM114 138h3v1h-3zM118 138h3v1h-3zM122 138h3v1h-3zM126 138h3v1h-3zM130 138h3v1h-3zM134 138h3v1h-3zM138 138h3v1h-3zM142 138h3v1h-3zM146 138h3v1h-3zM150 138h3v1h-3zM154 138h3v1h-3zM158 138h2v1h-2zM0 139h160v1h-160zM0 140h4v1h-4zM5 140h7v1h-7zM13 140h7v1h-7zM21 140h7v1h-7zM29 140h7v1h-7zM37 140h7v1h-7zM45 140h7v1h-7zM53 140h7v1h-7zM61 140h7v1h-7zM69 140h7v1h-7zM77 140h7v1h-7zM85 140h7v1h-7zM93 140h7v1h-7zM101 140h7v1h-7zM109 140h7v1h-7zM117 140h7v1h-7zM125 140h7v1h-7zM133 140h7v1h-7zM141 140h7v1h-7zM149 140h7v1h-7zM157 140h3v1h-3zM0 141h2v1h-2zM3 141h7v1h-7zM11 141h7v1h-7zM19 141h7v1h-7zM27 141h7v1h-7zM35 141h7v1h-7zM43 141h7v1h-7zM51 141h7v1h-7zM59 141h7v1h-7zM67 141h7v1h-7zM75 141h7v1h-7zM83 141h7v1h-7zM91 141h7v1h-7zM99 141h7v1h-7zM107 141h7v1h-7zM115 141h7v1h-7zM123 141h7v1h-7zM131 141h7v1h-7zM139 141h7v1h-7zM147 141h7v1h-7zM155 141h5v1h-5zM0 142h6v1h-6zM7 142h7v1h-7zM15 142h7v1h-7zM23 142h7v1h-7zM31 142h7v1h-7zM39 142h7v1h-7zM47 142h7v1h-7zM55 142h7v1h-7zM63 142h7v1h-7zM71 142h7v1h-7zM79 142h7v1h-7zM87 142h7v1h-7zM95 142h7v1h-7zM103 142h7v1h-7zM111 142h7v1h-7zM119 142h7v1h-7zM127 142h7v1h-7zM135 142h7v1h-7zM143 142h7v1h-7zM151 142h7v1h-7zM159 142h1v1h-1zM0 143h160v1h-160z"/><path fill="#d0d0d0" d="M99 91h1v1h-1zM80 96h40v1h-40zM25 116h3v1h-3zM29 116h1v1h-1zM24 117h4v1h-4zM29 117h2v1h-2zM24 118h7v1h-7zM26 119h3v1h-3zM23 121h2v1h-2zM26 121h1v1h-1zM31 121h1v1h-1zM23 122h2v1h-2zM26 122h2v1h-2zM31 122h1v1h-1zM27 123h2v1h-2zM24 126h2v1h-2zM30 126h2v1h-2zM0 128h160v1h-160zM0 136h160v1h-160z"/><path fill="#181818" d="M10 1h3v1h-3zM18 1h3v1h-3zM26 1h3v1h-3zM34 1h1v1h-1zM42 1h3v1h-3zM99 1h2v1h-2zM107 1h2v1h-2zM115 1h1v1h-1zM122 1h2v1h-2zM130 1h3v1h-3zM146 1h3v1h-3zM11 2h1v1h-1zM19 2h1v1h-1zM27 2h1v1h-1zM34 2h1v1h-1zM42 2h1v1h-1zM98 2h1v1h-1zM106 2h1v1h-1zM114 2h1v1h-1zM116 2h1v1h-1zM122 2h1v1h-1zM124 2h1v1h-1zM130 2h1v1h-1zM146 2h1v1h-1zM148 2h1v1h-1zM11 3h1v1h-1zM19 3h1v1h-1zM27 3h1v1h-1zM34 3h1v1h-1zM42 3h2v1h-2zM99 3h1v1h-1zM106 3h1v1h-1zM114 3h1v1h-1zM116 3h1v1h-1zM122 3h2v1h-2zM130 3h2v1h-2zM146 3h1v1h-1zM148 3h1v1h-1zM11 4h1v1h-1zM19 4h1v1h-1zM27 4h1v1h-1zM34 4h1v1h-1zM42 4h1v1h-1zM100 4h1v1h-1zM106 4h1v1h-1zM114 4h1v1h-1zM116 4h1v1h-1zM122 4h1v1h-1zM124 4h1v1h-1zM130 4h1v1h-1zM146 4h1v1h-1zM148 4h1v1h-1zM11 5h1v1h-1zM18 5h3v1h-3zM27 5h1v1h-1zM34 5h3v1h-3zM42 5h3v1h-3zM98 5h2v1h-2zM107 5h2v1h-2zM115 5h1v1h-1zM122 5h1v1h-1zM124 5h1v1h-1zM130 5h3v1h-3zM146 5h3v1h-3zM34 40h3v1h-3zM41 40h4v1h-4zM49 40h4v1h-4zM57 40h5v1h-5zM65 40h1v1h-1zM69 40h1v1h-1zM74 40h3v1h-3zM81 40h5v1h-5zM89 40h4v1h-4zM98 40h3v1h-3zM105 40h5v1h-5zM113 40h1v1h-1zM33 41h1v1h-1zM41 41h1v1h-1zM45 41h1v1h-1zM49 41h1v1h-1zM53 41h1v1h-1zM59 41h1v1h-1zM65 41h2v1h-2zM69 41h1v1h-1zM73 41h1v1h-1zM77 41h1v1h-1zM83 41h1v1h-1zM89 41h1v1h-1zM93 41h1v1h-1zM97 41h1v1h-1zM101 41h1v1h-1zM107 41h1v1h-1zM113 41h1v1h-1zM33 42h1v1h-1zM41 42h1v1h-1zM45 42h1v1h-1zM49 42h1v1h-1zM53 42h1v1h-1zM59 42h1v1h-1zM65 42h2v1h-2zM69 42h1v1h-1zM73 42h1v1h-1zM83 42h1v1h-1zM89 42h1v1h-1zM93 42h1v1h-1zM97 42h1v1h-1zM101 42h1v1h-1zM107 42h1v1h-1zM113 42h1v1h-1zM34 43h3v1h-3zM41 43h4v1h-4zM49 43h4v1h-4zM59 43h1v1h-1zM65 43h1v1h-1zM67 43h1v1h-1zM69 43h1v1h-1zM73 43h1v1h-1zM75 43h3v1h-3zM83 43h1v1h-1zM89 43h4v1h-4zM97 43h5v1h-5zM107 43h1v1h-1zM113 43h1v1h-1zM37 44h1v1h-1zM41 44h1v1h-1zM49 44h1v1h-1zM51 44h1v1h-1zM59 44h1v1h-1zM65 44h1v1h-1zM68 44h2v1h-2zM73 44h1v1h-1zM77 44h1v1h-1zM83 44h1v1h-1zM89 44h1v1h-1zM91 44h1v1h-1zM97 44h1v1h-1zM101 44h1v1h-1zM107 44h1v1h-1zM113 44h1v1h-1zM37 45h1v1h-1zM41 45h1v1h-1zM49 45h1v1h-1zM52 45h1v1h-1zM59 45h1v1h-1zM65 45h1v1h-1zM68 45h2v1h-2zM73 45h1v1h-1zM77 45h1v1h-1zM83 45h1v1h-1zM89 45h1v1h-1zM92 45h1v1h-1zM97 45h1v1h-1zM101 45h1v1h-1zM107 45h1v1h-1zM113 45h1v1h-1zM33 46h4v1h-4zM41 46h1v1h-1zM49 46h1v1h-1zM53 46h1v1h-1zM57 46h5v1h-5zM65 46h1v1h-1zM69 46h1v1h-1zM74 46h3v1h-3zM83 46h1v1h-1zM89 46h1v1h-1zM93 46h1v1h-1zM97 46h1v1h-1zM101 46h1v1h-1zM105 46h5v1h-5zM113 46h5v1h-5zM33 56h4v1h-4zM41 56h4v1h-4zM49 56h5v1h-5zM58 56h3v1h-3zM66 56h3v1h-3zM82 56h3v1h-3zM89 56h5v1h-5zM98 56h3v1h-3zM105 56h4v1h-4zM113 56h5v1h-5zM33 57h1v1h-1zM37 57h1v1h-1zM41 57h1v1h-1zM45 57h1v1h-1zM49 57h1v1h-1zM57 57h1v1h-1zM65 57h1v1h-1zM81 57h1v1h-1zM91 57h1v1h-1zM97 57h1v1h-1zM101 57h1v1h-1zM105 57h1v1h-1zM109 57h1v1h-1zM115 57h1v1h-1zM33 58h1v1h-1zM37 58h1v1h-1zM41 58h1v1h-1zM45 58h1v1h-1zM49 58h1v1h-1zM57 58h1v1h-1zM65 58h1v1h-1zM81 58h1v1h-1zM91 58h1v1h-1zM97 58h1v1h-1zM101 58h1v1h-1zM105 58h1v1h-1zM109 58h1v1h-1zM115 58h1v1h-1zM33 59h4v1h-4zM41 59h4v1h-4zM49 59h4v1h-4zM58 59h3v1h-3zM66 59h3v1h-3zM82 59h3v1h-3zM91 59h1v1h-1zM97 59h5v1h-5zM105 59h4v1h-4zM115 59h1v1h-1zM33 60h1v1h-1zM41 60h1v1h-1zM43 60h1v1h-1zM49 60h1v1h-1zM61 60h1v1h-1zM69 60h1v1h-1zM85 60h1v1h-1zM91 60h1v1h-1zM97 60h1v1h-1zM101 60h1v1h-1zM105 60h1v1h-1zM107 60h1v1h-1zM115 60h1v1h-1zM33 61h1v1h-1zM41 61h1v1h-1zM44 61h1v1h-1zM49 61h1v1h-1zM61 61h1v1h-1zM69 61h1v1h-1zM85 61h1v1h-1zM91 61h1v1h-1zM97 61h1v1h-1zM101 61h1v1h-1zM105 61h1v1h-1zM108 61h1v1h-1zM115 61h1v1h-1zM33 62h1v1h-1zM41 62h1v1h-1zM45 62h1v1h-1zM49 62h5v1h-5zM57 62h4v1h-4zM65 62h4v1h-4zM81 62h4v1h-4zM91 62h1v1h-1zM97 62h1v1h-1zM101 62h1v1h-1zM105 62h1v1h-1zM109 62h1v1h-1zM115 62h1v1h-1zM99 89h1v1h-1zM98 90h1v1h-1zM100 90h1v1h-1zM97 91h1v1h-1zM101 91h1v1h-1zM98 92h1v1h-1zM100 92h1v1h-1zM99 93h1v1h-1zM25 112h5v1h-5zM24 113h1v1h-1zM30 113h1v1h-1zM23 114h1v1h-1zM31 114h1v1h-1zM23 115h10v1h-10zM24 116h1v1h-1zM28 116h1v1h-1zM30 116h1v1h-1zM23 117h1v1h-1zM28 117h1v1h-1zM31 117h1v1h-1zM23 118h1v1h-1zM31 118h1v1h-1zM24 119h2v1h-2zM29 119h2v1h-2zM23 120h2v1h-2zM28 120h3v1h-3zM22 121h1v1h-1zM30 121h1v1h-1zM32 121h1v1h-1zM22 122h1v1h-1zM30 122h1v1h-1zM32 122h1v1h-1zM23 123h2v1h-2zM30 123h2v1h-2zM24 124h1v1h-1zM27 124h2v1h-2zM31 124h1v1h-1zM24 125h1v1h-1zM26 125h1v1h-1zM29 125h1v1h-1zM31 125h1v1h-1zM23 126h1v1h-1zM26 126h1v1h-1zM29 126h1v1h-1zM32 126h1v1h-1zM23 127h4v1h-4zM29 127h4v1h-4z"/></g>
<g class="f1" opacity="0"><path fill="#686868" d="M10 1h2v1h-2zM18 1h1v1h-1zM27 1h1v1h-1zM34 1h1v1h-1zM36 1h1v1h-1zM99 1h2v1h-2zM107 1h2v1h-2zM115 1h1v1h-1zM122 1h2v1h-2zM130 1h3v1h-3zM146 1h3v1h-3zM10 2h1v1h-1zM12 2h1v1h-1zM18 2h1v1h-1zM26 2h1v1h-1zM28 2h1v1h-1zM34 2h1v1h-1zM36 2h1v1h-1zM98 2h1v1h-1zM106 2h1v1h-1zM114 2h1v1h-1zM116 2h1v1h-1zM122 2h1v1h-1zM124 2h1v1h-1zM130 2h1v1h-1zM146 2h1v1h-1zM148 2h1v1h-1zM10 3h2v1h-2zM18 3h1v1h-1zM26 3h3v1h-3zM35 3h1v1h-1zM99 3h1v1h-1zM106 3h1v1h-1zM114 3h1v1h-1zM116 3h1v1h-1zM122 3h2v1h-2zM130 3h2v1h-2zM146 3h1v1h-1zM148 3h1v1h-1zM10 4h1v1h-1zM18 4h1v1h-1zM26 4h1v1h-1zM28 4h1v1h-1zM35 4h1v1h-1zM100 4h1v1h-1zM106 4h1v1h-1zM114 4h1v1h-1zM116 4h1v1h-1zM122 4h1v1h-1zM124 4h1v1h-1zM130 4h1v1h-1zM146 4h1v1h-1zM148 4h1v1h-1zM10 5h1v1h-1zM18 5h3v1h-3zM26 5h1v1h-1zM28 5h1v1h-1zM35 5h1v1h-1zM98 5h2v1h-2zM107 5h2v1h-2zM115 5h1v1h-1zM122 5h1v1h-1zM124 5h1v1h-1zM130 5h3v1h-3zM146 5h3v1h-3zM99 89h1v1h-1zM98 90h3v1h-3zM97 91h5v1h-5zM98 92h3v1h-3zM99 93h1v1h-1zM80 96h40v1h-40zM80 97h40v1h-40zM80 98h1v1h-1zM82 98h3v1h-3zM86 98h3v1h-3zM90 98h3v1h-3zM94 98h3v1h-3zM98 98h3v1h-3zM102 98h3v1h-3zM106 98h3v1h-3zM110 98h3v1h-3zM114 98h3v1h-3zM118 98h2v1h-2zM80 99h40v1h-40zM80 100h4v1h-4zM85 100h7v1h-7zM93 100h7v1h-7zM101 100h7v1h-7zM109 100h7v1h-7zM117 100h3v1h-3zM80 101h2v1h-2zM83 101h7v1h-7zM91 101h7v1h-7zM99 101h7v1h-7zM107 101h7v1h-7zM115 101h5v1h-5zM80 102h6v1h-6zM87 102h7v1h-7zM95 102h7v1h-7zM103 102h7v1h-7zM111 102h7v1h-7zM119 102h1v1h-1zM80 103h40v1h-40zM25 112h5v1h-5zM24 113h7v1h-7zM23 114h9v1h-9zM23 115h10v1h-10zM24 116h7v1h-7zM23 117h9v1h-9zM23 118h9v1h-9zM24 119h7v1h-7zM23 120h8v1h-8zM22 121h11v1h-11zM22 122h11v1h-11zM23 123h9v1h-9zM24 124h8v1h-8zM24 125h3v1h-3zM29 125h3v1h-3zM23 126h4v1h-4zM29 126h4v1h-4zM23 127h4v1h-4zM29 127h4v1h-4zM0 128h160v1h-160zM0 129h160v1h-160zM0 130h1v1h-1zM2 130h3v1h-3zM6 130h3v1h-3zM10 130h3v1h-3zM14 130h3v1h-3zM18 130h3v1h-3zM22 130h3v1h-3zM26 130h3v1h-3zM30 130h3v1h-3zM34 130h3v1h-3zM38 130h3v1h-3zM42 130h3v1h-3zM46 130h3v1h-3zM50 130h3v1h-3zM54 130h3v1h-3zM58 130h3v1h-3zM62 130h3v1h-3zM66 130h3v1h-3zM70 130h3v1h-3zM74 130h3v1h-3zM78 130h3v1h-3zM82 130h3v1h-3zM86 130h3v1h-3zM90 130h3v1h-3zM94 130h3v1h-3zM98 130h3v1h-3zM102 130h3v1h-3zM106 130h3v1h-3zM110 130h3v1h-3zM114 130h3v1h-3zM118 130h3v1h-3zM122 130h3v1h-3zM126 130h3v1h-3zM130 130h3v1h-3zM134 130h3v1h-3zM138 130h3v1h-3zM142 130h3v1h-3zM146 130h3v1h-3zM150 130h3v1h-3zM154 130h3v1h-3zM158 130h2v1h-2zM0 131h160v1h-160zM0 132h4v1h-4zM5 132h7v1h-7zM13 132h7v1h-7zM21 132h7v1h-7zM29 132h7v1h-7zM37 132h7v1h-7zM45 132h7v1h-7zM53 132h7v1h-7zM61 132h7v1h-7zM69 132h7v1h-7zM77 132h7v1h-7zM85 132h7v1h-7zM93 132h7v1h-7zM101 132h7v1h-7zM109 132h7v1h-7zM117 132h7v1h-7zM125 132h7v1h-7zM133 132h7v1h-7zM141 132h7v1h-7zM149 132h7v1h-7zM157 132h3v1h-3zM0 133h2v1h-2zM3 133h7v1h-7zM11 133h7v1h-7zM19 133h7v1h-7zM27 133h7v1h-7zM35 133h7v1h-7zM43 133h7v1h-7zM51 133h7v1h-7zM59 133h7v1h-7zM67 133h7v1h-7zM75 133h7v1h-7zM83 133h7v1h-7zM91 133h7v1h-7zM99 133h7v1h-7zM107 133h7v1h-7zM115 133h7v1h-7zM123 133h7v1h-7zM131 133h7v1h-7zM139 133h7v1h-7zM147 133h7v1h-7zM155 133h5v1h-5zM0 134h6v1h-6zM7 134h7v1h-7zM15 134h7v1h-7zM23 134h7v1h-7zM31 134h7v1h-7zM39 134h7v1h-7zM47 134h7v1h-7zM55 134h7v1h-7zM63 134h7v1h-7zM71 134h7v1h-7zM79 134h7v1h-7zM87 134h7v1h-7zM95 134h7v1h-7zM103 134h7v1h-7zM111 134h7v1h-7zM119 134h7v1h-7zM127 134h7v1h-7zM135 134h7v1h-7zM143 134h7v1h-7zM151 134h7v1h-7zM159 134h1v1h-1zM0 135h160v1h-160zM0 136h160v1h-160zM0 137h160v1h-160zM0 138h1v1h-1zM2 138h3v1h-3zM6 138h3v1h-3zM10 138h3v1h-3zM14 138h3v1h-3zM18 138h3v1h-3zM22 138h3v1h-3zM26 138h3v1h-3zM30 138h3v1h-3zM34 138h3v1h-3zM38 138h3v1h-3zM42 138h3v1h-3zM46 138h3v1h-3zM50 138h3v1h-3zM54 138h3v1h-3zM58 138h3v1h-3zM62 138h3v1h-3zM66 138h3v1h-3zM70 138h3v1h-3zM74 138h3v1h-3zM78 138h3v1h-3zM82 138h3v1h-3zM86 138h3v1h-3zM90 138h3v1h-3zM94 138h3v1h-3zM98 138h3v1h-3zM102 138h3v1h-3zM106 138h3v1h-3zM110 138h3v1h-3zM114 138h3v1h-3zM118 138h3v1h-3zM122 138h3v1h-3zM126 138h3v1h-3zM130 138h3v1h-3zM134 138h3v1h-3zM138 138h3v1h-3zM142 138h3v1h-3zM146 138h3v1h-3zM150 138h3v1h-3zM154 138h3v1h-3zM158 138h2v1h-2zM0 139h160v1h-160zM0 140h4v1h-4zM5 140h7v1h-7zM13 140h7v1h-7zM21 140h7v1h-7zM29 140h7v1h-7zM37 140h7v1h-7zM45 140h7v1h-7zM53 140h7v1h-7zM61 140h7v1h-7zM69 140h7v1h-7zM77 140h7v1h-7zM85 140h7v1h-7zM93 140h7v1h-7zM101 140h7v1h-7zM109 140h7v1h-7zM117 140h7v1h-7zM125 140h7v1h-7zM133 140h7v1h-7zM141 140h7v1h-7zM149 140h7v1h-7zM157 140h3v1h-3zM0 141h2v1h-2zM3 141h7v1h-7zM11 141h7v1h-7zM19 141h7v1h-7zM27 141h7v1h-7zM35 141h7v1h-7zM43 141h7v1h-7zM51 141h7v1h-7zM59 141h7v1h-7zM67 141h7v1h-7zM75 141h7v1h-7zM83 141h7v1h-7zM91 141h7v1h-7zM99 141h7v1h-7zM107 141h7v1h-7zM115 141h7v1h-7zM123 141h7v1h-7zM131 141h7v1h-7zM139 141h7v1h-7zM147 141h7v1h-7zM155 141h5v1h-5zM0 142h6v1h-6zM7 142h7v1h-7zM15 142h7v1h-7zM23 142h7v1h-7zM31 142h7v1h-7zM39 142h7v1h-7zM47 142h7v1h-7zM55 142h7v1h-7zM63 142h7v1h-7zM71 142h7v1h-7zM79 142h7v1h-7zM87 142h7v1h-7zM95 142h7v1h-7zM103 142h7v1h-7zM111 142h7v1h-7zM119 142h7v1h-7zM127 142h7v1h-7zM135 142h7v1h-7zM143 142h7v1h-7zM151 142h7v1h-7zM159 142h1v1h-1zM0 143h160v1h-160z"/><path fill="#d0d0d0" d="M99 91h1v1h-1zM80 96h40v1h-40zM25 116h3v1h-3zM29 116h1v1h-1zM24 117h4v1h-4zM29 117h2v1h-2zM24 118h7v1h-7zM26 119h3v1h-3zM23 121h2v1h-2zM26 121h1v1h-1zM31 121h1v1h-1zM23 122h2v1h-2zM26 122h2v1h-2zM31 122h1v1h-1zM27 123h2v1h-2zM24 126h2v1h-2zM30 126h2v1h-2zM0 128h160v1h-160zM0 136h160v1h-160z"/><path fill="#181818" d="M10 1h2v1h-2zM18 1h1v1h-1zM27 1h1v1h-1zM34 1h1v1h-1zM36 1h1v1h-1zM99 1h2v1h-2zM107 1h2v1h-2zM115 1h1v1h-1zM122 1h2v1h-2zM130 1h3v1h-3zM146 1h3v1h-3zM10 2h1v1h-1zM12 2h1v1h-1zM18 2h1v1h-1zM26 2h1v1h-1zM28 2h1v1h-1zM34 2h1v1h-1zM36 2h1v1h-1zM98 2h1v1h-1zM106 2h1v1h-1zM114 2h1v1h-1zM116 2h1v1h-1zM122 2h1v1h-1zM124 2h1v1h-1zM130 2h1v1h-1zM146 2h1v1h-1zM148 2h1v1h-1zM10 3h2v1h-2zM18 3h1v1h-1zM26 3h3v1h-3zM35 3h1v1h-1zM99 3h1v1h-1zM106 3h1v1h-1zM114 3h1v1h-1zM116 3h1v1h-1zM122 3h2v1h-2zM130 3h2v1h-2zM146 3h1v1h-1zM148 3h1v1h-1zM10 4h1v1h-1zM18 4h1v1h-1zM26 4h1v1h-1zM28 4h1v1h-1zM35 4h1v1h-1zM100 4h1v1h-1zM106 4h1v1h-1zM114 4h1v1h-1zM116 4h1v1h-1zM122 4h1v1h-1zM124 4h1v1h-1zM130 4h1v1h-1zM146 4h1v1h-1zM148 4h1v1h-1zM10 5h1v1h-1zM18 5h3v1h-3zM26 5h1v1h-1zM28 5h1v1h-1zM35 5h1v1h-1zM98 5h2v1h-2zM107 5h2v1h-2zM115 5h1v1h-1zM122 5h1v1h-1zM124 5h1v1h-1zM130 5h3v1h-3zM146 5h3v1h-3zM99 89h1v1h-1zM98 90h1v1h-1zM100 90h1v1h-1zM97 91h1v1h-1zM101 91h1v1h-1zM98 92h1v1h-1zM100 92h1v1h-1zM99 93h1v1h-1zM25 112h5v1h-5zM24 113h1v1h-1zM30 113h1v1h-1zM23 114h1v1h-1zM31 114h1v1h-1zM23 115h10v1h-10zM24 116h1v1h-1zM28 116h1v1h-1zM30 116h1v1h-1zM23 117h1v1h-1zM28 117h1v1h-1zM31 117h1v1h-1zM23 118h1v1h-1zM31 118h1v1h-1zM24 119h2v1h-2zM29 119h2v1h-2zM23 120h2v1h-2zM28 120h3v1h-3zM22 121h1v1h-1zM30 121h1v1h-1zM32 121h1v1h-1zM22 122h1v1h-1zM30 122h1v1h-1zM32 122h1v1h-1zM23 123h2v1h-2zM30 123h2v1h-2zM24 124h1v1h-1zM27 124h2v1h-2zM31 124h1v1h-1zM24 125h1v1h-1zM26 125h1v1h-1zM29 125h1v1h-1zM31 125h1v1h-1zM23 126h1v1h-1zM26 126h1v1h-1zM29 126h1v1h-1zM32 126h1v1h-1zM23 127h4v1h-4zM29 127h4v1h-4z"/></g>
<g class="f2" opacity="0"><path fill="#686868" d="M10 1h2v1h-2zM18 1h1v1h-1zM27 1h1v1h-1zM34 1h1v1h-1zM36 1h1v1h-1zM99 1h2v1h-2zM107 1h2v1h-2zM115 1h1v1h-1zM122 1h2v1h-2zM130 1h3v1h-3zM146 1h3v1h-3zM10 2h1v1h-1zM12 2h1v1h-1zM18 2h1v1h-1zM26 2h1v1h-1zM28 2h1v1h-1zM34 2h1v1h-1zM36 2h1v1h-1zM98 2h1v1h-1zM106 2h1v1h-1zM114 2h1v1h-1zM116 2h1v1h-1zM122 2h1v1h-1zM124 2h1v1h-1zM130 2h1v1h-1zM146 2h1v1h-1zM148 2h1v1h-1zM10 3h2v1h-2zM18 3h1v1h-1zM26 3h3v1h-3zM35 3h1v1h-1zM99 3h1v1h-1zM106 3h1v1h-1zM114 3h1v1h-1zM116 3h1v1h-1zM122 3h2v1h-2zM130 3h2v1h-2zM146 3h1v1h-1zM148 3h1v1h-1zM10 4h1v1h-1zM18 4h1v1h-1zM26 4h1v1h-1zM28 4h1v1h-1zM35 4h1v1h-1zM100 4h1v1h-1zM106 4h1v1h-1zM114 4h1v1h-1zM116 4h1v1h-1zM122 4h1v1h-1zM124 4h1v1h-1zM130 4h1v1h-1zM146 4h1v1h-1zM148 4h1v1h-1zM10 5h1v1h-1zM18 5h3v1h-3zM26 5h1v1h-1zM28 5h1v1h-1zM35 5h1v1h-1zM98 5h2v1h-2zM107 5h2v1h-2zM115 5h1v1h-1zM122 5h1v1h-1zM124 5h1v1h-1zM130 5h3v1h-3zM146 5h3v1h-3zM99 89h1v1h-1zM98 90h3v1h-3zM97 91h5v1h-5zM98 92h3v1h-3zM99 93h1v1h-1zM80 96h40v1h-40zM80 97h40v1h-40zM80 98h1v1h-1zM82 98h3v1h-3zM86 98h3v1h-3zM90 98h3v1h-3zM94 98h3v1h-3zM98 98h3v1h-3zM102 98h3v1h-3zM106 98h3v1h-3zM110 98h3v1h-3zM114 98h3v1h-3zM118 98h2v1h-2zM80 99h40v1h-40zM80 100h4v1h-4zM85 100h7v1h-7zM93 100h7v1h-7zM101 100h7v1h-7zM109 100h7v1h-7zM117 100h3v1h-3zM80 101h2v1h-2zM83 101h7v1h-7zM91 101h7v1h-7zM99 101h7v1h-7zM107 101h7v1h-7zM115 101h5v1h-5zM80 102h6v1h-6zM87 102h7v1h-7zM95 102h7v1h-7zM103 102h7v1h-7zM111 102h7v1h-7zM119 102h1v1h-1zM80 103h40v1h-40zM63 112h5v1h-5zM62 113h7v1h-7zM61 114h9v1h-9zM61 115h10v1h-10zM62 116h7v1h-7zM61 117h9v1h-9zM61 118h9v1h-9zM62 119h7v1h-7zM61 120h8v1h-8zM59 121h11v1h-11zM59 122h12v1h-12zM60 123h11v1h-11zM61 124h9v1h-9zM60 125h5v1h-5zM67 125h4v1h-4zM59 126h4v1h-4zM68 126h4v1h-4zM59 127h4v1h-4zM68 127h4v1h-4zM0 128h160v1h-160zM0 129h160v1h-160zM0 130h1v1h-1zM2 130h3v1h-3zM6 130h3v1h-3zM10 130h3v1h-3zM14 130h3v1h-3zM18 130h3v1h-3zM22 130h3v1h-3zM26 130h3v1h-3zM30 130h3v1h-3zM34 130h3v1h-3zM38 130h3v1h-3zM42 130h3v1h-3zM46 130h3v1h-3zM50 130h3v1h-3zM54 130h3v1h-3zM58 130h3v1h-3zM62 130h3v1h-3zM66 130h3v1h-3zM70 130h3v1h-3zM74 130h3v1h-3zM78 130h3v1h-3zM82 130h3v1h-3zM86 130h3v1h-3zM90 130h3v1h-3zM94 130h3v1h-3zM98 130h3v1h-3zM102 130h3v1h-3zM106 130h3v1h-3zM110 130h3v1h-3zM114 130h3v1h-3zM118 130h3v1h-3zM122 130h3v1h-3zM126 130h3v1h-3zM130 130h3v1h-3zM134 130h3v1h-3zM138 130h3v1h-3zM142 130h3v1h-3zM146 130h3v1h-3zM150 130h3v1h-3zM154 130h3v1h-3zM158 130h2v1h-2zM0 131h160v1h-160zM0 132h4v1h-4zM5 132h7v1h-7zM13 132h7v1h-7zM21 132h7v1h-7zM29 132h7v1h-7zM37 132h7v1h-7zM45 132h7v1h-7zM53 132h7v1h-7zM61 132h7v1h-7zM69 132h7v1h-7zM77 132h7v1h-7zM85 132h7v1h-7zM93 132h7v1h-7zM101 132h7v1h-7zM109 132h7v1h-7zM117 132h7v1h-7zM125 132h7v1h-7zM133 132h7v1h-7zM141 132h7v1h-7zM149 132h7v1h-7zM157 132h3v1h-3zM0 133h2v1h-2zM3 133h7v1h-7zM11 133h7v1h-7zM19 133h7v1h-7zM27 133h7v1h-7zM35 133h7v1h-7zM43 133h7v1h-7zM51 133h7v1h-7zM59 133h7v1h-7zM67 133h7v1h-7zM75 133h7v1h-7zM83 133h7v1h-7zM91 133h7v1h-7zM99 133h7v1h-7zM107 133h7v1h-7zM115 133h7v1h-7zM123 133h7v1h-7zM131 133h7v1h-7zM139 133h7v1h-7zM147 133h7v1h-7zM155 133h5v1h-5zM0 134h6v1h-6zM7 134h7v1h-7zM15 134h7v1h-7zM23 134h7v1h-7zM31 134h7v1h-7zM39 134h7v1h-7zM47 134h7v1h-7zM55 134h7v1h-7zM63 134h7v1h-7zM71 134h7v1h-7zM79 134h7v1h-7zM87 134h7v1h-7zM95 134h7v1h-7zM103 134h7v1h-7zM111 134h7v1h-7zM119 134h7v1h-7zM127 134h7v1h-7zM135 134h7v1h-7zM143 134h7v1h-7zM151 134h7v1h-7zM159 134h1v1h-1zM0 135h160v1h-160zM0 136h160v1h-160zM0 137h160v1h-160zM0 138h1v1h-1zM2 138h3v1h-3zM6 138h3v1h-3zM10 138h3v1h-3zM14 138h3v1h-3zM18 138h3v1h-3zM22 138h3v1h-3zM26 138h3v1h-3zM30 138h3v1h-3zM34 138h3v1h-3zM38 138h3v1h-3zM42 138h3v1h-3zM46 138h3v1h-3zM50 138h3v1h-3zM54 138h3v1h-3zM58 138h3v1h-3zM62 138h3v1h-3zM66 138h3v1h-3zM70 138h3v1h-3zM74 138h3v1h-3zM78 138h3v1h-3zM82 138h3v1h-3zM86 138h3v1h-3zM90 138h3v1h-3zM94 138h3v1h-3zM98 138h3v1h-3zM102 138h3v1h-3zM106 138h3v1h-3zM110 138h3v1h-3zM114 138h3v1h-3zM118 138h3v1h-3zM122 138h3v1h-3zM126 138h3v1h-3zM130 138h3v1h-3zM134 138h3v1h-3zM138 138h3v1h-3zM142 138h3v1h-3zM146 138h3v1h-3zM150 138h3v1h-3zM154 138h3v1h-3zM158 138h2v1h-2zM0 139h160v1h-160zM0 140h4v1h-4zM5 140h7v1h-7zM13 140h7v1h-7zM21 140h7v1h-7zM29 140h7v1h-7zM37 140h7v1h-7zM45 140h7v1h-7zM53 140h7v1h-7zM61 140h7v1h-7zM69 140h7v1h-7zM77 140h7v1h-7zM85 140h7v1h-7zM93 140h7v1h-7zM101 140h7v1h-7zM109 140h7v1h-7zM117 140h7v1h-7zM125 140h7v1h-7zM133 140h7v1h-7zM141 140h7v1h-7zM149 140h7v1h-7zM157 140h3v1h-3zM0 141h2v1h-2zM3 141h7v1h-7zM11 141h7v1h-7zM19 141h7v1h-7zM27 141h7v1h-7zM35 141h7v1h-7zM43 141h7v1h-7zM51 141h7v1h-7zM59 141h7v1h-7zM67 141h7v1h-7zM75 141h7v1h-7zM83 141h7v1h-7zM91 141h7v1h-7zM99 141h7v1h-7zM107 141h7v1h-7zM115 141h7v1h-7zM123 141h7v1h-7zM131 141h7v1h-7zM139 141h7v1h-7zM147 141h7v1h-7zM155 141h5v1h-5zM0 142h6v1h-6zM7 142h7v1h-7zM15 142h7v1h-7zM23 142h7v1h-7zM31 142h7v1h-7zM39 142h7v1h-7zM47 142h7v1h-7zM55 142h7v1h-7zM63 142h7v1h-7zM71 142h7v1h-7zM79 142h7v1h-7zM87 142h7v1h-7zM95 142h7v1h-7zM103 142h7v1h-7zM111 142h7v1h-7zM119 142h7v1h-7zM127 142h7v1h-7zM135 142h7v1h-7zM143 142h7v1h-7zM151 142h7v1h-7zM159 142h1v1h-1zM0 143h160v1h-160z"/><path fill="#d0d0d0" d="M99 91h1v1h-1zM80 96h40v1h-40zM63 116h3v1h-3zM67 116h1v1h-1zM62 117h4v1h-4zM67 117h2v1h-2zM62 118h7v1h-7zM64 119h3v1h-3zM60 121h2v1h-2zM64 121h1v1h-1zM60 122h2v1h-2zM64 122h2v1h-2zM69 122h1v1h-1zM65 123h2v1h-2zM69 123h1v1h-1zM60 126h2v1h-2zM69 126h2v1h-2zM0 128h160v1h-160zM0 136h160v1h-160z"/><path fill="#181818" d="M10 1h2v1h-2zM18 1h1v1h-1zM27 1h1v1h-1zM34 1h1v1h-1zM36 1h1v1h-1zM99 1h2v1h-2zM107 1h2v1h-2zM115 1h1v1h-1zM122 1h2v1h-2zM130 1h3v1h-3zM146 1h3v1h-3zM10 2h1v1h-1zM12 2h1v1h-1zM18 2h1v1h-1zM26 2h1v1h-1zM28 2h1v1h-1zM34 2h1v1h-1zM36 2h1v1h-1zM98 2h1v1h-1zM106 2h1v1h-1zM114 2h1v1h-1zM116 2h1v1h-1zM122 2h1v1h-1zM124 2h1v1h-1zM130 2h1v1h-1zM146 2h1v1h-1zM148 2h1v1h-1zM10 3h2v1h-2zM18 3h1v1h-1zM26 3h3v1h-3zM35 3h1v1h-1zM99 3h1v1h-1zM106 3h1v1h-1zM114 3h1v1h-1zM116 3h1v1h-1zM122 3h2v1h-2zM130 3h2v1h-2zM146 3h1v1h-1zM148 3h1v1h-1zM10 4h1v1h-1zM18 4h1v1h-1zM26 4h1v1h-1zM28 4h1v1h-1zM35 4h1v1h-1zM100 4h1v1h-1zM106 4h1v1h-1zM114 4h1v1h-1zM116 4h1v1h-1zM122 4h1v1h-1zM124 4h1v1h-1zM130 4h1v1h-1zM146 4h1v1h-1zM148 4h1v1h-1zM10 5h1v1h-1zM18 5h3v1h-3zM26 5h1v1h-1zM28 5h1v1h-1zM35 5h1v1h-1zM98 5h2v1h-2zM107 5h2v1h-2zM115 5h1v1h-1zM122 5h1v1h-1zM124 5h1v1h-1zM130 5h3v1h-3zM146 5h3v1h-3zM99 89h1v1h-1zM98 90h1v1h-1zM100 90h1v1h-1zM97 91h1v1h-1zM101 91h1v1h-1zM98 92h1v1h-1zM100 92h1v1h-1zM99 93h1v1h-1zM63 112h5v1h-5zM62 113h1v1h-1zM68 113h1v1h-1zM61 114h1v1h-1zM69 114h1v1h-1zM61 115h10v1h-10zM62 116h1v1h-1zM66 116h1v1h-1zM68 116h1v1h-1zM61 117h1v1h-1zM66 117h1v1h-1zM69 117h1v1h-1zM61 118h1v1h-1zM69 118h1v1h-1zM62 119h2v1h-2zM67 119h2v1h-2zM61 120h2v1h-2zM66 120h3v1h-3zM59 121h1v1h-1zM62 121h1v1h-1zM68 121h2v1h-2zM59 122h1v1h-1zM62 122h1v1h-1zM68 122h1v1h-1zM70 122h1v1h-1zM60 123h3v1h-3zM68 123h1v1h-1zM70 123h1v1h-1zM61 124h1v1h-1zM65 124h2v1h-2zM69 124h1v1h-1zM60 125h1v1h-1zM63 125h2v1h-2zM67 125h1v1h-1zM70 125h1v1h-1zM59 126h1v1h-1zM62 126h1v1h-1zM68 126h1v1h-1zM71 126h1v1h-1zM59 127h4v1h-4zM68 127h4v1h-4z"/></g>
<g class="f3" opacity="0"><path fill="#686868" d="M10 1h2v1h-2zM19 1h1v1h-1zM26 1h1v1h-1zM28 1h1v1h-1zM35 1h2v1h-2zM42 1h3v1h-3zM50 1h2v1h-2zM99 1h2v1h-2zM107 1h2v1h-2zM115 1h1v1h-1zM122 1h2v1h-2zM130 1h3v1h-3zM146 1h3v1h-3zM10 2h1v1h-1zM12 2h1v1h-1zM18 2h1v1h-1zM20 2h1v1h-1zM26 2h1v1h-1zM28 2h1v1h-1zM34 2h1v1h-1zM42 2h1v1h-1zM50 2h1v1h-1zM52 2h1v1h-1zM98 2h1v1h-1zM106 2h1v1h-1zM114 2h1v1h-1zM116 2h1v1h-1zM122 2h1v1h-1zM124 2h1v1h-1zM130 2h1v1h-1zM146 2h1v1h-1zM148 2h1v1h-1zM10 3h2v1h-2zM18 3h3v1h-3zM26 3h1v1h-1zM28 3h1v1h-1zM35 3h1v1h-1zM42 3h2v1h-2zM50 3h1v1h-1zM52 3h1v1h-1zM99 3h1v1h-1zM106 3h1v1h-1zM114 3h1v1h-1zM116 3h1v1h-1zM122 3h2v1h-2zM130 3h2v1h-2zM146 3h1v1h-1zM148 3h1v1h-1zM10 4h1v1h-1zM18 4h1v1h-1zM20 4h1v1h-1zM26 4h1v1h-1zM28 4h1v1h-1zM36 4h1v1h-1zM42 4h1v1h-1zM50 4h1v1h-1zM52 4h1v1h-1zM100 4h1v1h-1zM106 4h1v1h-1zM114 4h1v1h-1zM116 4h1v1h-1zM122 4h1v1h-1zM124 4h1v1h-1zM130 4h1v1h-1zM146 4h1v1h-1zM148 4h1v1h-1zM10 5h1v1h-1zM18 5h1v1h-1zM20 5h1v1h-1zM26 5h3v1h-3zM34 5h2v1h-2zM42 5h3v1h-3zM50 5h2v1h-2zM98 5h2v1h-2zM107 5h2v1h-2zM115 5h1v1h-1zM122 5h1v1h-1zM124 5h1v1h-1zM130 5h3v1h-3zM146 5h3v1h-3zM87 89h1v1h-1zM86 90h3v1h-3zM85 91h5v1h-5zM86 92h3v1h-3zM87 93h1v1h-1zM68 96h40v1h-40zM68 97h40v1h-40zM68 98h1v1h-1zM70 98h3v1h-3zM74 98h3v1h-3zM78 98h3v1h-3zM82 98h3v1h-3zM86 98h3v1h-3zM90 98h3v1h-3zM94 98h3v1h-3zM98 98h3v1h-3zM102 98h3v1h-3zM106 98h2v1h-2zM68 99h40v1h-40zM68 100h4v1h-4zM73 100h7v1h-7zM81 100h7v1h-7zM89 100h7v1h-7zM97 100h7v1h-7zM105 100h3v1h-3zM68 101h2v1h-2zM71 101h7v1h-7zM79 101h7v1h-7zM87 101h7v1h-7zM95 101h7v1h-7zM103 101h5v1h-5zM68 102h6v1h-6zM75 102h7v1h-7zM83 102h7v1h-7zM91 102h7v1h-7zM99 102h7v1h-7zM107 102h1v1h-1zM68 103h40v1h-40zM73 112h5v1h-5zM72 113h7v1h-7zM71 114h9v1h-9zM71 115h10v1h-10zM72 116h7v1h-7zM71 117h9v1h-9zM71 118h9v1h-9zM72 119h7v1h-7zM71 120h8v1h-8zM69 121h11v1h-11zM69 122h12v1h-12zM70 123h11v1h-11zM71 124h9v1h-9zM70 125h5v1h-5zM77 125h4v1h-4zM69 126h4v1h-4zM78 126h4v1h-4zM69 127h4v1h-4zM78 127h4v1h-4zM0 128h160v1h-160zM0 129h160v1h-160zM0 130h1v1h-1zM2 130h3v1h-3zM6 130h3v1h-3zM10 130h3v1h-3zM14 130h3v1h-3zM18 130h3v1h-3zM22 130h3v1h-3zM26 130h3v1h-3zM30 130h3v1h-3zM34 130h3v1h-3zM38 130h3v1h-3zM42 130h3v1h-3zM46 130h3v1h-3zM50 130h3v1h-3zM54 130h3v1h-3zM58 130h3v1h-3zM62 130h3v1h-3zM66 130h3v1h-3zM70 130h3v1h-3zM74 130h3v1h-3zM78 130h3v1h-3zM82 130h3v1h-3zM86 130h3v1h-3zM90 130h3v1h-3zM94 130h3v1h-3zM98 130h3v1h-3zM102 130h3v1h-3zM106 130h3v1h-3zM110 130h3v1h-3zM114 130h3v1h-3zM118 130h3v1h-3zM122 130h3v1h-3zM126 130h3v1h-3zM130 130h3v1h-3zM134 130h3v1h-3zM138 130h3v1h-3zM142 130h3v1h-3zM146 130h3v1h-3zM150 130h3v1h-3zM154 130h3v1h-3zM158 130h2v1h-2zM0 131h160v1h-160zM1 132h7v1h-7zM9 132h7v1h-7zM17 132h7v1h-7zM25 132h7v1h-7zM33 132h7v1h-7zM41 132h7v1h-7zM49 132h7v1h-7zM57 132h7v1h-7zM65 132h7v1h-7zM73 132h7v1h-7zM81 132h7v1h-7zM89 132h7v1h-7zM97 132h7v1h-7zM105 132h7v1h-7zM113 132h7v1h-7zM121 132h7v1h-7zM129 132h7v1h-7zM137 132h7v1h-7zM145 132h7v1h-7zM153 132h7v1h-7zM0 133h6v1h-6zM7 133h7v1h-7zM15 133h7v1h-7zM23 133h7v1h-7zM31 133h7v1h-7zM39 133h7v1h-7zM47 133h7v1h-7zM55 133h7v1h-7zM63 133h7v1h-7zM71 133h7v1h-7zM79 133h7v1h-7zM87 133h7v1h-7zM95 133h7v1h-7zM103 133h7v1h-7zM111 133h7v1h-7zM119 133h7v1h-7zM127 133h7v1h-7zM135 133h7v1h-7zM143 133h7v1h-7zM151 133h7v1h-7zM159 133h1v1h-1zM0 134h2v1h-2zM3 134h7v1h-7zM11 134h7v1h-7zM19 134h7v1h-7zM27 134h7v1h-7zM35 134h7v1h-7zM43 134h7v1h-7zM51 134h7v1h-7zM59 134h7v1h-7zM67 134h7v1h-7zM75 134h7v1h-7zM83 134h7v1h-7zM91 134h7v1h-7zM99 134h7v1h-7zM107 134h7v1h-7zM115 134h7v1h-7zM123 134h7v1h-7zM131 134h7v1h-7zM139 134h7v1h-7zM147 134h7v1h-7zM155 134h5v1h-5zM0 135h160v1h-160zM0 136h160v1h-160zM0 137h160v1h-160zM0 138h1v1h-1zM2 138h3v1h-3zM6 138h3v1h-3zM10 138h3v1h-3zM14 138h3v1h-3zM18 138h3v1h-3zM22 138h3v1h-3zM26 138h3v1h-3zM30 138h3v1h-3zM34 138h3v1h-3zM38 138h3v1h-3zM42 138h3v1h-3zM46 138h3v1h-3zM50 138h3v1h-3zM54 138h3v1h-3zM58 138h3v1h-3zM62 138h3v1h-3zM66 138h3v1h-3zM70 138h3v1h-3zM74 138h3v1h-3zM78 138h3v1h-3zM82 138h3v1h-3zM86 138h3v1h-3zM90 138h3v1h-3zM94 138h3v1h-3zM98 138h3v1h-3zM102 138h3v1h-3zM106 138h3v1h-3zM110 138h3v1h-3zM114 138h3v1h-3zM118 138h3v1h-3zM122 138h3v1h-3zM126 138h3v1h-3zM130 138h3v1h-3zM134 138h3v1h-3zM138 138h3v1h-3zM142 138h3v1h-3zM146 138h3v1h-3zM150 138h3v1h-3zM154 138h3v1h-3zM158 138h2v1h-2zM0 139h160v1h-160zM1 140h7v1h-7zM9 140h7v1h-7zM17 140h7v1h-7zM25 140h7v1h-7zM33 140h7v1h-7zM41 140h7v1h-7zM49 140h7v1h-7zM57 140h7v1h-7zM65 140h7v1h-7zM73 140h7v1h-7zM81 140h7v1h-7zM89 140h7v1h-7zM97 140h7v1h-7zM105 140h7v1h-7zM113 140h7v1h-7zM121 140h7v1h-7zM129 140h7v1h-7zM137 140h7v1h-7zM145 140h7v1h-7zM153 140h7v1h-7zM0 141h6v1h-6zM7 141h7v1h-7zM15 141h7v1h-7zM23 141h7v1h-7zM31 141h7v1h-7zM39 141h7v1h-7zM47 141h7v1h-7zM55 141h7v1h-7zM63 141h7v1h-7zM71 141h7v1h-7zM79 141h7v1h-7zM87 141h7v1h-7zM95 141h7v1h-7zM103 141h7v1h-7zM111 141h7v1h-7zM119 141h7v1h-7zM127 141h7v1h-7zM135 141h7v1h-7zM143 141h7v1h-7zM151 141h7v1h-7zM159 141h1v1h-1zM0 142h2v1h-2zM3 142h7v1h-7zM11 142h7v1h-7zM19 142h7v1h-7zM27 142h7v1h-7zM35 142h7v1h-7zM43 142h7v1h-7zM51 142h7v1h-7zM59 142h7v1h-7zM67 142h7v1h-7zM75 142h7v1h-7zM83 142h7v1h-7zM91 142h7v1h-7zM99 142h7v1h-7zM107 142h7v1h-7zM115 142h7v1h-7zM123 142h7v1h-7zM131 142h7v1h-7zM139 142h7v1h-7zM147 142h7v1h-7zM155 142h5v1h-5zM0 143h160v1h-160z"/><path fill="#d0d0d0" d="M87 91h1v1h-1zM68 96h40v1h-40zM73 116h3v1h-3zM77 116h1v1h-1zM72 117h4v1h-4zM77 117h2v1h-2zM72 118h7v1h-7zM74 119h3v1h-3zM70 121h2v1h-2zM74 121h1v1h-1zM70 122h2v1h-2zM74 122h2v1h-2zM79 122h1v1h-1zM75 123h2v1h-2zM79 123h1v1h-1zM70 126h2v1h-2zM79 126h2v1h-2zM0 128h160v1h-160zM0 136h160v1h-160z"/><path fill="#181818" d="M10 1h2v1h-2zM19 1h1v1h-1zM26 1h1v1h-1zM28 1h1v1h-1zM35 1h2v1h-2zM42 1h3v1h-3zM50 1h2v1h-2zM99 1h2v1h-2zM107 1h2v1h-2zM115 1h1v1h-1zM122 1h2v1h-2zM130 1h3v1h-3zM146 1h3v1h-3zM10 2h1v1h-1zM12 2h1v1h-1zM18 2h1v1h-1zM20 2h1v1h-1zM26 2h1v1h-1zM28 2h1v1h-1zM34 2h1v1h-1zM42 2h1v1h-1zM50 2h1v1h-1zM52 2h1v1h-1zM98 2h1v1h-1zM106 2h1v1h-1zM114 2h1v1h-1zM116 2h1v1h-1zM122 2h1v1h-1zM124 2h1v1h-1zM130 2h1v1h-1zM146 2h1v1h-1zM148 2h1v1h-1zM10 3h2v1h-2zM18 3h3v1h-3zM26 3h1v1h-1zM28 3h1v1h-1zM35 3h1v1h-1zM42 3h2v1h-2zM50 3h1v1h-1zM52 3h1v1h-1zM99 3h1v1h-1zM106 3h1v1h-1zM114 3h1v1h-1zM116 3h1v1h-1zM122 3h2v1h-2zM130 3h2v1h-2zM146 3h1v1h-1zM148 3h1v1h-1zM10 4h1v1h-1zM18 4h1v1h-1zM20 4h1v1h-1zM26 4h1v1h-1zM28 4h1v1h-1zM36 4h1v1h-1zM42 4h1v1h-1zM50 4h1v1h-1zM52 4h1v1h-1zM100 4h1v1h-1zM106 4h1v1h-1zM114 4h1v1h-1zM116 4h1v1h-1zM122 4h1v1h-1zM124 4h1v1h-1zM130 4h1v1h-1zM146 4h1v1h-1zM148 4h1v1h-1zM10 5h1v1h-1zM18 5h1v1h-1zM20 5h1v1h-1zM26 5h3v1h-3zM34 5h2v1h-2zM42 5h3v1h-3zM50 5h2v1h-2zM98 5h2v1h-2zM107 5h2v1h-2zM115 5h1v1h-1zM122 5h1v1h-1zM124 5h1v1h-1zM130 5h3v1h-3zM146 5h3v1h-3zM87 89h1v1h-1zM86 90h1v1h-1zM88 90h1v1h-1zM85 91h1v1h-1zM89 91h1v1h-1zM86 92h1v1h-1zM88 92h1v1h-1zM87 93h1v1h-1zM73 112h5v1h-5zM72 113h1v1h-1zM78 113h1v1h-1zM71 114h1v1h-1zM79 114h1v1h-1zM71 115h10v1h-10zM72 116h1v1h-1zM76 116h1v1h-1zM78 116h1v1h-1zM71 117h1v1h-1zM76 117h1v1h-1zM79 117h1v1h-1zM71 118h1v1h-1zM79 118h1v1h-1zM72 119h2v1h-2zM77 119h2v1h-2zM71 120h2v1h-2zM76 120h3v1h-3zM69 121h1v1h-1zM72 121h1v1h-1zM78 121h2v1h-2zM69 122h1v1h-1zM72 122h1v1h-1zM78 122h1v1h-1zM80 122h1v1h-1zM70 123h3v1h-3zM78 123h1v1h-1zM80 123h1v1h-1zM71 124h1v1h-1zM75 124h2v1h-2zM79 124h1v1h-1zM70 125h1v1h-1zM73 125h2v1h-2zM77 125h1v1h-1zM80 125h1v1h-1zM69 126h1v1h-1zM72 126h1v1h-1zM78 126h1v1h-1zM81 126h1v1h-1zM69 127h4v1h-4zM78 127h4v1h-4z"/></g>
<g class="f4" opacity="0"><path fill="#686868" d="M10 1h2v1h-2zM18 1h1v1h-1zM27 1h1v1h-1zM34 1h1v1h-1zM36 1h1v1h-1zM99 1h2v1h-2zM107 1h2v1h-2zM115 1h1v1h-1zM122 1h2v1h-2zM130 1h3v1h-3zM146 1h3v1h-3zM10 2h1v1h-1zM12 2h1v1h-1zM18 2h1v1h-1zM26 2h1v1h-1zM28 2h1v1h-1zM34 2h1v1h-1zM36 2h1v1h-1zM98 2h1v1h-1zM106 2h1v1h-1zM114 2h1v1h-1zM116 2h1v1h-1zM122 2h1v1h-1zM124 2h1v1h-1zM130 2h1v1h-1zM146 2h1v1h-1zM148 2h1v1h-1zM10 3h2v1h-2zM18 3h1v1h-1zM26 3h3v1h-3zM35 3h1v1h-1zM99 3h1v1h-1zM106 3h1v1h-1zM114 3h1v1h-1zM116 3h1v1h-1zM122 3h2v1h-2zM130 3h2v1h-2zM146 3h1v1h-1zM148 3h1v1h-1zM10 4h1v1h-1zM18 4h1v1h-1zM26 4h1v1h-1zM28 4h1v1h-1zM35 4h1v1h-1zM100 4h1v1h-1zM106 4h1v1h-1zM114 4h1v1h-1zM116 4h1v1h-1zM122 4h1v1h-1zM124 4h1v1h-1zM130 4h1v1h-1zM146 4h1v1h-1zM148 4h1v1h-1zM10 5h1v1h-1zM18 5h3v1h-3zM26 5h1v1h-1zM28 5h1v1h-1zM35 5h1v1h-1zM98 5h2v1h-2zM107 5h2v1h-2zM115 5h1v1h-1zM122 5h1v1h-1zM124 5h1v1h-1zM130 5h3v1h-3zM146 5h3v1h-3zM87 89h1v1h-1zM86 90h3v1h-3zM85 91h5v1h-5zM86 92h3v1h-3zM87 93h1v1h-1zM68 96h40v1h-40zM68 97h40v1h-40zM68 98h1v1h-1zM70 98h3v1h-3zM74 98h3v1h-3zM78 98h3v1h-3zM82 98h3v1h-3zM86 98h3v1h-3zM90 98h3v1h-3zM94 98h3v1h-3zM98 98h3v1h-3zM102 98h3v1h-3zM106 98h2v1h-2zM68 99h40v1h-40zM68 100h4v1h-4zM73 100h7v1h-7zM81 100h7v1h-7zM89 100h7v1h-7zM97 100h7v1h-7zM105 100h3v1h-3zM68 101h2v1h-2zM71 101h7v1h-7zM79 101h7v1h-7zM87 101h7v1h-7zM95 101h7v1h-7zM103 101h5v1h-5zM68 102h6v1h-6zM75 102h7v1h-7zM83 102h7v1h-7zM91 102h7v1h-7zM99 102h7v1h-7zM107 102h1v1h-1zM68 103h40v1h-40zM73 112h5v1h-5zM72 113h7v1h-7zM71 114h9v1h-9zM71 115h10v1h-10zM72 116h7v1h-7zM71 117h9v1h-9zM71 118h9v1h-9zM72 119h7v1h-7zM71 120h8v1h-8zM69 121h11v1h-11zM69 122h12v1h-12zM70 123h11v1h-11zM71 124h9v1h-9zM70 125h5v1h-5zM77 125h4v1h-4zM69 126h4v1h-4zM78 126h4v1h-4zM69 127h4v1h-4zM78 127h4v1h-4zM0 128h160v1h-160zM0 129h160v1h-160zM0 130h1v1h-1zM2 130h3v1h-3zM6 130h3v1h-3zM10 130h3v1h-3zM14 130h3v1h-3zM18 130h3v1h-3zM22 130h3v1h-3zM26 130h3v1h-3zM30 130h3v1h-3zM34 130h3v1h-3zM38 130h3v1h-3zM42 130h3v1h-3zM46 130h3v1h-3zM50 130h3v1h-3zM54 130h3v1h-3zM58 130h3v1h-3zM62 130h3v1h-3zM66 130h3v1h-3zM70 130h3v1h-3zM74 130h3v1h-3zM78 130h3v1h-3zM82 130h3v1h-3zM86 130h3v1h-3zM90 130h3v1h-3zM94 130h3v1h-3zM98 130h3v1h-3zM102 130h3v1h-3zM106 130h3v1h-3zM110 130h3v1h-3zM114 130h3v1h-3zM118 130h3v1h-3zM122 130h3v1h-3zM126 130h3v1h-3zM130 130h3v1h-3zM134 130h3v1h-3zM138 130h3v1h-3zM142 130h3v1h-3zM146 130h3v1h-3zM150 130h3v1h-3zM154 130h3v1h-3zM158 130h2v1h-2zM0 131h160v1h-160zM1 132h7v1h-7zM9 132h7v1h-7zM17 132h7v1h-7zM25 132h7v1h-7zM33 132h7v1h-7zM41 132h7v1h-7zM49 132h7v1h-7zM57 132h7v1h-7zM65 132h7v1h-7zM73 132h7v1h-7zM81 132h7v1h-7zM89 132h7v1h-7zM97 132h7v1h-7zM105 132h7v1h-7zM113 132h7v1h-7zM121 132h7v1h-7zM129 132h7v1h-7zM137 132h7v1h-7zM145 132h7v1h-7zM153 132h7v1h-7zM0 133h6v1h-6zM7 133h7v1h-7zM15 133h7v1h-7zM23 133h7v1h-7zM31 133h7v1h-7zM39 133h7v1h-7zM47 133h7v1h-7zM55 133h7v1h-7zM63 133h7v1h-7zM71 133h7v1h-7zM79 133h7v1h-7zM87 133h7v1h-7zM95 133h7v1h-7zM103 133h7v1h-7zM111 133h7v1h-7zM119 133h7v1h-7zM127 133h7v1h-7zM135 133h7v1h-7zM143 133h7v1h-7zM151 133h7v1h-7zM159 133h1v1h-1zM0 134h2v1h-2zM3 134h7v1h-7zM11 134h7v1h-7zM19 134h7v1h-7zM27 134h7v1h-7zM35 134h7v1h-7zM43 134h7v1h-7zM51 134h7v1h-7zM59 134h7v1h-7zM67 134h7v1h-7zM75 134h7v1h-7zM83 134h7v1h-7zM91 134h7v1h-7zM99 134h7v1h-7zM107 134h7v1h-7zM115 134h7v1h-7zM123 134h7v1h-7zM131 134h7v1h-7zM139 134h7v1h-7zM147 134h7v1h-7zM155 134h5v1h-5zM0 135h160v1h-160zM0 136h160v1h-160zM0 137h160v1h-160zM0 138h1v1h-1zM2 138h3v1h-3zM6 138h3v1h-3zM10 138h3v1h-3zM14 138h3v1h-3zM18 138h3v1h-3zM22 138h3v1h-3zM26 138h3v1h-3zM30 138h3v1h-3zM34 138h3v1h-3zM38 138h3v1h-3zM42 138h3v1h-3zM46 138h3v1h-3zM50 138h3v1h-3zM54 138h3v1h-3zM58 138h3v1h-3zM62 138h3v1h-3zM66 138h3v1h-3zM70 138h3v1h-3zM74 138h3v1h-3zM78 138h3v1h-3zM82 138h3v1h-3zM86 138h3v1h-3zM90 138h3v1h-3zM94 138h3v1h-3zM98 138h3v1h-3zM102 138h3v1h-3zM106 138h3v1h-3zM110 138h3v1h-3zM114 138h3v1h-3zM118 138h3v1h-3zM122 138h3v1h-3zM126 138h3v1h-3zM130 138h3v1h-3zM134 138h3v1h-3zM138 138h3v1h-3zM142 138h3v1h-3zM146 138h3v1h-3zM150 138h3v1h-3zM154 138h3v1h-3zM158 138h2v1h-2zM0 139h160v1h-160zM1 140h7v1h-7zM9 140h7v1h-7zM17 140h7v1h-7zM25 140h7v1h-7zM33 140h7v1h-7zM41 140h7v1h-7zM49 140h7v1h-7zM57 140h7v1h-7zM65 140h7v1h-7zM73 140h7v1h-7zM81 140h7v1h-7zM89 140h7v1h-7zM97 140h7v1h-7zM105 140h7v1h-7zM113 140h7v1h-7zM121 140h7v1h-7zM129 140h7v1h-7zM137 140h7v1h-7zM145 140h7v1h-7zM153 140h7v1h-7zM0 141h6v1h-6zM7 141h7v1h-7zM15 141h7v1h-7zM23 141h7v1h-7zM31 141h7v1h-7zM39 141h7v1h-7zM47 141h7v1h-7zM55 141h7v1h-7zM63 141h7v1h-7zM71 141h7v1h-7zM79 141h7v1h-7zM87 141h7v1h-7zM95 141h7v1h-7zM103 141h7v1h-7zM111 141h7v1h-7zM119 141h7v1h-7zM127 141h7v1h-7zM135 141h7v1h-7zM143 141h7v1h-7zM151 141h7v1h-7zM159 141h1v1h-1zM0 142h2v1h-2zM3 142h7v1h-7zM11 142h7v1h-7zM19 142h7v1h-7zM27 142h7v1h-7zM35 142h7v1h-7zM43 142h7v1h-7zM51 142h7v1h-7zM59 142h7v1h-7zM67 142h7v1h-7zM75 142h7v1h-7zM83 142h7v1h-7zM91 142h7v1h-7zM99 142h7v1h-7zM107 142h7v1h-7zM115 142h7v1h-7zM123 142h7v1h-7zM131 142h7v1h-7zM139 142h7v1h-7zM147 142h7v1h-7zM155 142h5v1h-5zM0 143h160v1h-160z"/><path fill="#d0d0d0" d="M87 91h1v1h-1zM68 96h40v1h-40zM73 116h3v1h-3zM77 116h1v1h-1zM72 117h4v1h-4zM77 117h2v1h-2zM72 118h7v1h-7zM74 119h3v1h-3zM70 121h2v1h-2zM74 121h1v1h-1zM70 122h2v1h-2zM74 122h2v1h-2zM79 122h1v1h-1zM75 123h2v1h-2zM79 123h1v1h-1zM70 126h2v1h-2zM79 126h2v1h-2zM0 128h160v1h-160zM0 136h160v1h-160z"/><path fill="#181818" d="M10 1h2v1h-2zM18 1h1v1h-1zM27 1h1v1h-1zM34 1h1v1h-1zM36 1h1v1h-1zM99 1h2v1h-2zM107 1h2v1h-2zM115 1h1v1h-1zM122 1h2v1h-2zM130 1h3v1h-3zM146 1h3v1h-3zM10 2h1v1h-1zM12 2h1v1h-1zM18 2h1v1h-1zM26 2h1v1h-1zM28 2h1v1h-1zM34 2h1v1h-1zM36 2h1v1h-1zM98 2h1v1h-1zM106 2h1v1h-1zM114 2h1v1h-1zM116 2h1v1h-1zM122 2h1v1h-1zM124 2h1v1h-1zM130 2h1v1h-1zM146 2h1v1h-1zM148 2h1v1h-1zM10 3h2v1h-2zM18 3h1v1h-1zM26 3h3v1h-3zM35 3h1v1h-1zM99 3h1v1h-1zM106 3h1v1h-1zM114 3h1v1h-1zM116 3h1v1h-1zM122 3h2v1h-2zM130 3h2v1h-2zM146 3h1v1h-1zM148 3h1v1h-1zM10 4h1v1h-1zM18 4h1v1h-1zM26 4h1v1h-1zM28 4h1v1h-1zM35 4h1v1h-1zM100 4h1v1h-1zM106 4h1v1h-1zM114 4h1v1h-1zM116 4h1v1h-1zM122 4h1v1h-1zM124 4h1v1h-1zM130 4h1v1h-1zM146 4h1v1h-1zM148 4h1v1h-1zM10 5h1v1h-1zM18 5h3v1h-3zM26 5h1v1h-1zM28 5h1v1h-1zM35 5h1v1h-1zM98 5h2v1h-2zM107 5h2v1h-2zM115 5h1v1h-1zM122 5h1v1h-1zM124 5h1v1h-1zM130 5h3v1h-3zM146 5h3v1h-3zM87 89h1v1h-1zM86 90h1v1h-1zM88 90h1v1h-1zM85 91h1v1h-1zM89 91h1v1h-1zM86 92h1v1h-1zM88 92h1v1h-1zM87 93h1v1h-1zM73 112h5v1h-5zM72 113h1v1h-1zM78 113h1v1h-1zM71 114h1v1h-1zM79 114h1v1h-1zM71 115h10v1h-10zM72 116h1v1h-1zM76 116h1v1h-1zM78 116h1v1h-1zM71 117h1v1h-1zM76 117h1v1h-1zM79 117h1v1h-1zM71 118h1v1h-1zM79 118h1v1h-1zM72 119h2v1h-2zM77 119h2v1h-2zM71 120h2v1h-2zM76 120h3v1h-3zM69 121h1v1h-1zM72 121h1v1h-1zM78 121h2v1h-2zM69 122h1v1h-1zM72 122h1v1h-1zM78 122h1v1h-1zM80 122h1v1h-1zM70 123h3v1h-3zM78 123h1v1h-1zM80 123h1v1h-1zM71 124h1v1h-1zM75 124h2v1h-2zM79 124h1v1h-1zM70 125h1v1h-1zM73 125h2v1h-2zM77 125h1v1h-1zM80 125h1v1h-1zM69 126h1v1h-1zM72 126h1v1h-1zM78 126h1v1h-1zM81 126h1v1h-1zM69 127h4v1h-4zM78 127h4v1h-4z"/></g>
<g class="f5" opacity="0"><path fill="#686868" d="M10 1h2v1h-2zM18 1h1v1h-1zM27 1h1v1h-1zM34 1h1v1h-1zM36 1h1v1h-1zM99 1h2v1h-2zM107 1h2v1h-2zM115 1h1v1h-1zM122 1h2v1h-2zM130 1h3v1h-3zM146 1h3v1h-3zM10 2h1v1h-1zM12 2h1v1h-1zM18 2h1v1h-1zM26 2h1v1h-1zM28 2h1v1h-1zM34 2h1v1h-1zM36 2h1v1h-1zM98 2h1v1h-1zM106 2h1v1h-1zM114 2h1v1h-1zM116 2h1v1h-1zM122 2h1v1h-1zM124 2h1v1h-1zM130 2h1v1h-1zM146 2h1v1h-1zM148 2h1v1h-1zM10 3h2v1h-2zM18 3h1v1h-1zM26 3h3v1h-3zM35 3h1v1h-1zM99 3h1v1h-1zM106 3h1v1h-1zM114 3h1v1h-1zM116 3h1v1h-1zM122 3h2v1h-2zM130 3h2v1h-2zM146 3h1v1h-1zM148 3h1v1h-1zM10 4h1v1h-1zM18 4h1v1h-1zM26 4h1v1h-1zM28 4h1v1h-1zM35 4h1v1h-1zM100 4h1v1h-1zM106 4h1v1h-1zM114 4h1v1h-1zM116 4h1v1h-1zM122 4h1v1h-1zM124 4h1v1h-1zM130 4h1v1h-1zM146 4h1v1h-1zM148 4h1v1h-1zM10 5h1v1h-1zM18 5h3v1h-3zM26 5h1v1h-1zM28 5h1v1h-1zM35 5h1v1h-1zM98 5h2v1h-2zM107 5h2v1h-2zM115 5h1v1h-1zM122 5h1v1h-1zM124 5h1v1h-1zM130 5h3v1h-3zM146 5h3v1h-3zM39 89h1v1h-1zM38 90h3v1h-3zM37 91h5v1h-5zM38 92h3v1h-3zM39 93h1v1h-1zM20 96h40v1h-40zM20 97h40v1h-40zM20 98h1v1h-1zM22 98h3v1h-3zM26 98h3v1h-3zM30 98h3v1h-3zM34 98h3v1h-3zM38 98h3v1h-3zM42 98h3v1h-3zM46 98h3v1h-3zM50 98h3v1h-3zM54 98h3v1h-3zM58 98h2v1h-2zM20 99h40v1h-40zM20 100h4v1h-4zM25 100h7v1h-7zM33 100h7v1h-7zM41 100h7v1h-7zM49 100h7v1h-7zM57 100h3v1h-3zM20 101h2v1h-2zM23 101h7v1h-7zM31 101h7v1h-7zM39 101h7v1h-7zM47 101h7v1h-7zM55 101h5v1h-5zM20 102h6v1h-6zM27 102h7v1h-7zM35 102h7v1h-7zM43 102h7v1h-7zM51 102h7v1h-7zM59 102h1v1h-1zM20 103h40v1h-40zM73 112h5v1h-5zM72 113h7v1h-7zM71 114h9v1h-9zM71 115h10v1h-10zM72 116h7v1h-7zM71 117h9v1h-9zM71 118h9v1h-9zM72 119h7v1h-7zM71 120h8v1h-8zM69 121h11v1h-11zM69 122h12v1h-12zM70 123h11v1h-11zM71 124h9v1h-9zM70 125h5v1h-5zM77 125h4v1h-4zM69 126h4v1h-4zM78 126h4v1h-4zM69 127h4v1h-4zM78 127h4v1h-4zM0 128h116v1h-116zM148 128h12v1h-12zM0 129h116v1h-116zM148 129h12v1h-12zM0 130h1v1h-1zM2 130h3v1h-3zM6 130h3v1h-3zM10 130h3v1h-3zM14 130h3v1h-3zM18 130h3v1h-3zM22 130h3v1h-3zM26 130h3v1h-3zM30 130h3v1h-3zM34 130h3v1h-3zM38 130h3v1h-3zM42 130h3v1h-3zM46 130h3v1h-3zM50 130h3v1h-3zM54 130h3v1h-3zM58 130h3v1h-3zM62 130h3v1h-3zM66 130h3v1h-3zM70 130h3v1h-3zM74 130h3v1h-3zM78 130h3v1h-3zM82 130h3v1h-3zM86 130h3v1h-3zM90 130h3v1h-3zM94 130h3v1h-3zM98 130h3v1h-3zM102 130h3v1h-3zM106 130h3v1h-3zM110 130h3v1h-3zM114 130h2v1h-2zM148 130h1v1h-1zM150 130h3v1h-3zM154 130h3v1h-3zM158 130h2v1h-2zM0 131h116v1h-116zM148 131h12v1h-12zM1 132h7v1h-7zM9 132h7v1h-7zM17 132h7v1h-7zM25 132h7v1h-7zM33 132h7v1h-7zM41 132h7v1h-7zM49 132h7v1h-7zM57 132h7v1h-7zM65 132h7v1h-7zM73 132h7v1h-7zM81 132h7v1h-7zM89 132h7v1h-7zM97 132h7v1h-7zM105 132h7v1h-7zM113 132h3v1h-3zM148 132h4v1h-4zM153 132h7v1h-7zM0 133h6v1h-6zM7 133h7v1h-7zM15 133h7v1h-7zM23 133h7v1h-7zM31 133h7v1h-7zM39 133h7v1h-7zM47 133h7v1h-7zM55 133h7v1h-7zM63 133h7v1h-7zM71 133h7v1h-7zM79 133h7v1h-7zM87 133h7v1h-7zM95 133h7v1h-7zM103 133h7v1h-7zM111 133h5v1h-5zM148 133h2v1h-2zM151 133h7v1h-7zM159 133h1v1h-1zM0 134h2v1h-2zM3 134h7v1h-7zM11 134h7v1h-7zM19 134h7v1h-7zM27 134h7v1h-7zM35 134h7v1h-7zM43 134h7v1h-7zM51 134h7v1h-7zM59 134h7v1h-7zM67 134h7v1h-7zM75 134h7v1h-7zM83 134h7v1h-7zM91 134h7v1h-7zM99 134h7v1h-7zM107 134h7v1h-7zM115 134h1v1h-1zM148 134h6v1h-6zM155 134h5v1h-5zM0 135h116v1h-116zM148 135h12v1h-12zM0 136h116v1h-116zM148 136h12v1h-12zM0 137h116v1h-116zM148 137h12v1h-12zM0 138h1v1h-1zM2 138h3v1h-3zM6 138h3v1h-3zM10 138h3v1h-3zM14 138h3v1h-3zM18 138h3v1h-3zM22 138h3v1h-3zM26 138h3v1h-3zM30 138h3v1h-3zM34 138h3v1h-3zM38 138h3v1h-3zM42 138h3v1h-3zM46 138h3v1h-3zM50 138h3v1h-3zM54 138h3v1h-3zM58 138h3v1h-3zM62 138h3v1h-3zM66 138h3v1h-3zM70 138h3v1h-3zM74 138h3v1h-3zM78 138h3v1h-3zM82 138h3v1h-3zM86 138h3v1h-3zM90 138h3v1h-3zM94 138h3v1h-3zM98 138h3v1h-3zM102 138h3v1h-3zM106 138h3v1h-3zM110 138h3v1h-3zM114 138h2v1h-2zM148 138h1v1h-1zM150 138h3v1h-3zM154 138h3v1h-3zM158 138h2v1h-2zM0 139h116v1h-116zM148 139h12v1h-12zM1 140h7v1h-7zM9 140h7v1h-7zM17 140h7v1h-7zM25 140h7v1h-7zM33 140h7v1h-7zM41 140h7v1h-7zM49 140h7v1h-7zM57 140h7v1h-7zM65 140h7v1h-7zM73 140h7v1h-7zM81 140h7v1h-7zM89 140h7v1h-7zM97 140h7v1h-7zM105 140h7v1h-7zM113 140h3v1h-3zM148 140h4v1h-4zM153 140h7v1h-7zM0 141h6v1h-6zM7 141h7v1h-7zM15 141h7v1h-7zM23 141h7v1h-7zM31 141h7v1h-7zM39 141h7v1h-7zM47 141h7v1h-7zM55 141h7v1h-7zM63 141h7v1h-7zM71 141h7v1h-7zM79 141h7v1h-7zM87 141h7v1h-7zM95 141h7v1h-7zM103 141h7v1h-7zM111 141h5v1h-5zM148 141h2v1h-2zM151 141h7v1h-7zM159 141h1v1h-1zM0 142h2v1h-2zM3 142h7v1h-7zM11 142h7v1h-7zM19 142h7v1h-7zM27 142h7v1h-7zM35 142h7v1h-7zM43 142h7v1h-7zM51 142h7v1h-7zM59 142h7v1h-7zM67 142h7v1h-7zM75 142h7v1h-7zM83 142h7v1h-7zM91 142h7v1h-7zM99 142h7v1h-7zM107 142h7v1h-7zM115 142h1v1h-1zM148 142h6v1h-6zM155 142h5v1h-5zM0 143h116v1h-116zM148 143h12v1h-12z"/><path fill="#d0d0d0" d="M39 91h1v1h-1zM20 96h40v1h-40zM73 116h3v1h-3zM77 116h1v1h-1zM72 117h4v1h-4zM77 117h2v1h-2zM72 118h7v1h-7zM74 119h3v1h-3zM70 121h2v1h-2zM74 121h1v1h-1zM70 122h2v1h-2zM74 122h2v1h-2zM79 122h1v1h-1zM75 123h2v1h-2zM79 123h1v1h-1zM70 126h2v1h-2zM79 126h2v1h-2zM0 128h116v1h-116zM148 128h12v1h-12zM0 136h116v1h-116zM148 136h12v1h-12z"/><path fill="#181818" d="M10 1h2v1h-2zM18 1h1v1h-1zM27 1h1v1h-1zM34 1h1v1h-1zM36 1h1v1h-1zM99 1h2v1h-2zM107 1h2v1h-2zM115 1h1v1h-1zM122 1h2v1h-2zM130 1h3v1h-3zM146 1h3v1h-3zM10 2h1v1h-1zM12 2h1v1h-1zM18 2h1v1h-1zM26 2h1v1h-1zM28 2h1v1h-1zM34 2h1v1h-1zM36 2h1v1h-1zM98 2h1v1h-1zM106 2h1v1h-1zM114 2h1v1h-1zM116 2h1v1h-1zM122 2h1v1h-1zM124 2h1v1h-1zM130 2h1v1h-1zM146 2h1v1h-1zM148 2h1v1h-1zM10 3h2v1h-2zM18 3h1v1h-1zM26 3h3v1h-3zM35 3h1v1h-1zM99 3h1v1h-1zM106 3h1v1h-1zM114 3h1v1h-1zM116 3h1v1h-1zM122 3h2v1h-2zM130 3h2v1h-2zM146 3h1v1h-1zM148 3h1v1h-1zM10 4h1v1h-1zM18 4h1v1h-1zM26 4h1v1h-1zM28 4h1v1h-1zM35 4h1v1h-1zM100 4h1v1h-1zM106 4h1v1h-1zM114 4h1v1h-1zM116 4h1v1h-1zM122 4h1v1h-1zM124 4h1v1h-1zM130 4h1v1h-1zM146 4h1v1h-1zM148 4h1v1h-1zM10 5h1v1h-1zM18 5h3v1h-3zM26 5h1v1h-1zM28 5h1v1h-1zM35 5h1v1h-1zM98 5h2v1h-2zM107 5h2v1h-2zM115 5h1v1h-1zM122 5h1v1h-1zM124 5h1v1h-1zM130 5h3v1h-3zM146 5h3v1h-3zM39 89h1v1h-1zM38 90h1v1h-1zM40 90h1v1h-1zM37 91h1v1h-1zM41 91h1v1h-1zM38 92h1v1h-1zM40 92h1v1h-1zM39 93h1v1h-1zM73 112h5v1h-5zM72 113h1v1h-1zM78 113h1v1h-1zM71 114h1v1h-1zM79 114h1v1h-1zM71 115h10v1h-10zM72 116h1v1h-1zM76 116h1v1h-1zM78 116h1v1h-1zM71 117h1v1h-1zM76 117h1v1h-1zM79 117h1v1h-1zM71 118h1v1h-1zM79 118h1v1h-1zM72 119h2v1h-2zM77 119h2v1h-2zM71 120h2v1h-2zM76 120h3v1h-3zM69 121h1v1h-1zM72 121h1v1h-1zM78 121h2v1h-2zM69 122h1v1h-1zM72 122h1v1h-1zM78 122h1v1h-1zM80 122h1v1h-1zM70 123h3v1h-3zM78 123h1v1h-1zM80 123h1v1h-1zM71 124h1v1h-1zM75 124h2v1h-2zM79 124h1v1h-1zM70 125h1v1h-1zM73 125h2v1h-2zM77 125h1v1h-1zM80 125h1v1h-1zM69 126h1v1h-1zM72 126h1v1h-1zM78 126h1v1h-1zM81 126h1v1h-1zM69 127h4v1h-4zM78 127h4v1h-4z"/></g>
<g class="f6" opacity="0"><path fill="#686868" d="M10 1h2v1h-2zM18 1h1v1h-1zM27 1h1v1h-1zM34 1h1v1h-1zM36 1h1v1h-1zM99 1h2v1h-2zM107 1h2v1h-2zM115 1h1v1h-1zM122 1h2v1h-2zM130 1h3v1h-3zM146 1h3v1h-3zM10 2h1v1h-1zM12 2h1v1h-1zM18 2h1v1h-1zM26 2h1v1h-1zM28 2h1v1h-1zM34 2h1v1h-1zM36 2h1v1h-1zM98 2h1v1h-1zM106 2h1v1h-1zM114 2h1v1h-1zM116 2h1v1h-1zM122 2h1v1h-1zM124 2h1v1h-1zM130 2h1v1h-1zM146 2h1v1h-1zM148 2h1v1h-1zM10 3h2v1h-2zM18 3h1v1h-1zM26 3h3v1h-3zM35 3h1v1h-1zM99 3h1v1h-1zM106 3h1v1h-1zM114 3h1v1h-1zM116 3h1v1h-1zM122 3h2v1h-2zM130 3h2v1h-2zM146 3h1v1h-1zM148 3h1v1h-1zM10 4h1v1h-1zM18 4h1v1h-1zM26 4h1v1h-1zM28 4h1v1h-1zM35 4h1v1h-1zM100 4h1v1h-1zM106 4h1v1h-1zM114 4h1v1h-1zM116 4h1v1h-1zM122 4h1v1h-1zM124 4h1v1h-1zM130 4h1v1h-1zM146 4h1v1h-1zM148 4h1v1h-1zM10 5h1v1h-1zM18 5h3v1h-3zM26 5h1v1h-1zM28 5h1v1h-1zM35 5h1v1h-1zM98 5h2v1h-2zM107 5h2v1h-2zM115 5h1v1h-1zM122 5h1v1h-1zM124 5h1v1h-1zM130 5h3v1h-3zM146 5h3v1h-3zM156 80h4v1h-4zM156 81h4v1h-4zM156 82h1v1h-1zM158 82h2v1h-2zM156 83h4v1h-4zM156 84h4v1h-4zM156 85h2v1h-2zM159 85h1v1h-1zM156 86h4v1h-4zM156 87h4v1h-4zM7 89h1v1h-1zM6 90h3v1h-3zM5 91h5v1h-5zM6 92h3v1h-3zM7 93h1v1h-1zM0 96h28v1h-28zM0 97h28v1h-28zM0 98h1v1h-1zM2 98h3v1h-3zM6 98h3v1h-3zM10 98h3v1h-3zM14 98h3v1h-3zM18 98h3v1h-3zM22 98h3v1h-3zM26 98h2v1h-2zM0 99h28v1h-28zM1 100h7v1h-7zM9 100h7v1h-7zM17 100h7v1h-7zM25 100h3v1h-3zM0 101h6v1h-6zM7 101h7v1h-7zM15 101h7v1h-7zM23 101h5v1h-5zM0 102h2v1h-2zM3 102h7v1h-7zM11 102h7v1h-7zM19 102h7v1h-7zM27 102h1v1h-1zM0 103h28v1h-28zM73 112h5v1h-5zM72 113h7v1h-7zM71 114h9v1h-9zM71 115h10v1h-10zM72 116h7v1h-7zM71 117h9v1h-9zM71 118h9v1h-9zM72 119h7v1h-7zM71 120h8v1h-8zM69 121h11v1h-11zM69 122h12v1h-12zM70 123h11v1h-11zM71 124h9v1h-9zM70 125h5v1h-5zM77 125h4v1h-4zM69 126h4v1h-4zM78 126h4v1h-4zM69 127h4v1h-4zM78 127h4v1h-4zM0 128h84v1h-84zM116 128h44v1h-44zM0 129h84v1h-84zM116 129h44v1h-44zM0 130h1v1h-1zM2 130h3v1h-3zM6 130h3v1h-3zM10 130h3v1h-3zM14 130h3v1h-3zM18 130h3v1h-3zM22 130h3v1h-3zM26 130h3v1h-3zM30 130h3v1h-3zM34 130h3v1h-3zM38 130h3v1h-3zM42 130h3v1h-3zM46 130h3v1h-3zM50 130h3v1h-3zM54 130h3v1h-3zM58 130h3v1h-3zM62 130h3v1h-3zM66 130h3v1h-3zM70 130h3v1h-3zM74 130h3v1h-3zM78 130h3v1h-3zM82 130h2v1h-2zM116 130h1v1h-1zM118 130h3v1h-3zM122 130h3v1h-3zM126 130h3v1h-3zM130 130h3v1h-3zM134 130h3v1h-3zM138 130h3v1h-3zM142 130h3v1h-3zM146 130h3v1h-3zM150 130h3v1h-3zM154 130h3v1h-3zM158 130h2v1h-2zM0 131h84v1h-84zM116 131h44v1h-44zM1 132h7v1h-7zM9 132h7v1h-7zM17 132h7v1h-7zM25 132h7v1h-7zM33 132h7v1h-7zM41 132h7v1h-7zM49 132h7v1h-7zM57 132h7v1h-7zM65 132h7v1h-7zM73 132h7v1h-7zM81 132h3v1h-3zM116 132h4v1h-4zM121 132h7v1h-7zM129 132h7v1h-7zM137 132h7v1h-7zM145 132h7v1h-7zM153 132h7v1h-7zM0 133h6v1h-6zM7 133h7v1h-7zM15 133h7v1h-7zM23 133h7v1h-7zM31 133h7v1h-7zM39 133h7v1h-7zM47 133h7v1h-7zM55 133h7v1h-7zM63 133h7v1h-7zM71 133h7v1h-7zM79 133h5v1h-5zM116 133h2v1h-2zM119 133h7v1h-7zM127 133h7v1h-7zM135 133h7v1h-7zM143 133h7v1h-7zM151 133h7v1h-7zM159 133h1v1h-1zM0 134h2v1h-2zM3 134h7v1h-7zM11 134h7v1h-7zM19 134h7v1h-7zM27 134h7v1h-7zM35 134h7v1h-7zM43 134h7v1h-7zM51 134h7v1h-7zM59 134h7v1h-7zM67 134h7v1h-7zM75 134h7v1h-7zM83 134h1v1h-1zM116 134h6v1h-6zM123 134h7v1h-7zM131 134h7v1h-7zM139 134h7v1h-7zM147 134h7v1h-7zM155 134h5v1h-5zM0 135h84v1h-84zM116 135h44v1h-44zM0 136h84v1h-84zM116 136h44v1h-44zM0 137h84v1h-84zM116 137h44v1h-44zM0 138h1v1h-1zM2 138h3v1h-3zM6 138h3v1h-3zM10 138h3v1h-3zM14 138h3v1h-3zM18 138h3v1h-3zM22 138h3v1h-3zM26 138h3v1h-3zM30 138h3v1h-3zM34 138h3v1h-3zM38 138h3v1h-3zM42 138h3v1h-3zM46 138h3v1h-3zM50 138h3v1h-3zM54 138h3v1h-3zM58 138h3v1h-3zM62 138h3v1h-3zM66 138h3v1h-3zM70 138h3v1h-3zM74 138h3v1h-3zM78 138h3v1h-3zM82 138h2v1h-2zM116 138h1v1h-1zM118 138h3v1h-3zM122 138h3v1h-3zM126 138h3v1h-3zM130 138h3v1h-3zM134 138h3v1h-3zM138 138h3v1h-3zM142 138h3v1h-3zM146 138h3v1h-3zM150 138h3v1h-3zM154 138h3v1h-3zM158 138h2v1h-2zM0 139h84v1h-84zM116 139h44v1h-44zM1 140h7v1h-7zM9 140h7v1h-7zM17 140h7v1h-7zM25 140h7v1h-7zM33 140h7v1h-7zM41 140h7v1h-7zM49 140h7v1h-7zM57 140h7v1h-7zM65 140h7v1h-7zM73 140h7v1h-7zM81 140h3v1h-3zM116 140h4v1h-4zM121 140h7v1h-7zM129 140h7v1h-7zM137 140h7v1h-7zM145 140h7v1h-7zM153 140h7v1h-7zM0 141h6v1h-6zM7 141h7v1h-7zM15 141h7v1h-7zM23 141h7v1h-7zM31 141h7v1h-7zM39 141h7v1h-7zM47 141h7v1h-7zM55 141h7v1h-7zM63 141h7v1h-7zM71 141h7v1h-7zM79 141h5v1h-5zM116 141h2v1h-2zM119 141h7v1h-7zM127 141h7v1h-7zM135 141h7v1h-7zM143 141h7v1h-7zM151 141h7v1h-7zM159 141h1v1h-1zM0 142h2v1h-2zM3 142h7v1h-7zM11 142h7v1h-7zM19 142h7v1h-7zM27 142h7v1h-7zM35 142h7v1h-7zM43 142h7v1h-7zM51 142h7v1h-7zM59 142h7v1h-7zM67 142h7v1h-7zM75 142h7v1h-7zM83 142h1v1h-1zM116 142h6v1h-6zM123 142h7v1h-7zM131 142h7v1h-7zM139 142h7v1h-7zM147 142h7v1h-7zM155 142h5v1h-5zM0 143h84v1h-84zM116 143h44v1h-44z"/><path fill="#d0d0d0" d="M156 80h4v1h-4zM7 91h1v1h-1zM0 96h28v1h-28zM73 116h3v1h-3zM77 116h1v1h-1zM72 117h4v1h-4zM77 117h2v1h-2zM72 118h7v1h-7zM74 119h3v1h-3zM70 121h2v1h-2zM74 121h1v1h-1zM70 122h2v1h-2zM74 122h2v1h-2zM79 122h1v1h-1zM75 123h2v1h-2zM79 123h1v1h-1zM70 126h2v1h-2zM79 126h2v1h-2zM0 128h84v1h-84zM116 128h44v1h-44zM0 136h84v1h-84zM116 136h44v1h-44z"/><path fill="#181818" d="M10 1h2v1h-2zM18 1h1v1h-1zM27 1h1v1h-1zM34 1h1v1h-1zM36 1h1v1h-1zM99 1h2v1h-2zM107 1h2v1h-2zM115 1h1v1h-1zM122 1h2v1h-2zM130 1h3v1h-3zM146 1h3v1h-3zM10 2h1v1h-1zM12 2h1v1h-1zM18 2h1v1h-1zM26 2h1v1h-1zM28 2h1v1h-1zM34 2h1v1h-1zM36 2h1v1h-1zM98 2h1v1h-1zM106 2h1v1h-1zM114 2h1v1h-1zM116 2h1v1h-1zM122 2h1v1h-1zM124 2h1v1h-1zM130 2h1v1h-1zM146 2h1v1h-1zM148 2h1v1h-1zM10 3h2v1h-2zM18 3h1v1h-1zM26 3h3v1h-3zM35 3h1v1h-1zM99 3h1v1h-1zM106 3h1v1h-1zM114 3h1v1h-1zM116 3h1v1h-1zM122 3h2v1h-2zM130 3h2v1h-2zM146 3h1v1h-1zM148 3h1v1h-1zM10 4h1v1h-1zM18 4h1v1h-1zM26 4h1v1h-1zM28 4h1v1h-1zM35 4h1v1h-1zM100 4h1v1h-1zM106 4h1v1h-1zM114 4h1v1h-1zM116 4h1v1h-1zM122 4h1v1h-1zM124 4h1v1h-1zM130 4h1v1h-1zM146 4h1v1h-1zM148 4h1v1h-1zM10 5h1v1h-1zM18 5h3v1h-3zM26 5h1v1h-1zM28 5h1v1h-1zM35 5h1v1h-1zM98 5h2v1h-2zM107 5h2v1h-2zM115 5h1v1h-1zM122 5h1v1h-1zM124 5h1v1h-1zM130 5h3v1h-3zM146 5h3v1h-3zM7 89h1v1h-1zM6 90h1v1h-1zM8 90h1v1h-1zM5 91h1v1h-1zM9 91h1v1h-1zM6 92h1v1h-1zM8 92h1v1h-1zM7 93h1v1h-1zM73 112h5v1h-5zM72 113h1v1h-1zM78 113h1v1h-1zM71 114h1v1h-1zM79 114h1v1h-1zM71 115h10v1h-10zM72 116h1v1h-1zM76 116h1v1h-1zM78 116h1v1h-1zM71 117h1v1h-1zM76 117h1v1h-1zM79 117h1v1h-1zM71 118h1v1h-1zM79 118h1v1h-1zM72 119h2v1h-2zM77 119h2v1h-2zM71 120h2v1h-2zM76 120h3v1h-3zM69 121h1v1h-1zM72 121h1v1h-1zM78 121h2v1h-2zM69 122h1v1h-1zM72 122h1v1h-1zM78 122h1v1h-1zM80 122h1v1h-1zM70 123h3v1h-3zM78 123h1v1h-1zM80 123h1v1h-1zM71 124h1v1h-1zM75 124h2v1h-2zM79 124h1v1h-1zM70 125h1v1h-1zM73 125h2v1h-2zM77 125h1v1h-1zM80 125h1v1h-1zM69 126h1v1h-1zM72 126h1v1h-1zM78 126h1v1h-1zM81 126h1v1h-1zM69 127h4v1h-4zM78 127h4v1h-4z"/></g>
<g class="f7" opacity="0"><path fill="#686868" d="M10 1h2v1h-2zM18 1h1v1h-1zM27 1h1v1h-1zM34 1h1v1h-1zM36 1h1v1h-1zM99 1h2v1h-2zM107 1h2v1h-2zM115 1h1v1h-1zM122 1h2v1h-2zM130 1h3v1h-3zM146 1h3v1h-3zM10 2h1v1h-1zM12 2h1v1h-1zM18 2h1v1h-1zM26 2h1v1h-1zM28 2h1v1h-1zM34 2h1v1h-1zM36 2h1v1h-1zM98 2h1v1h-1zM106 2h1v1h-1zM114 2h1v1h-1zM116 2h1v1h-1zM122 2h1v1h-1zM124 2h1v1h-1zM130 2h1v1h-1zM146 2h1v1h-1zM148 2h1v1h-1zM10 3h2v1h-2zM18 3h1v1h-1zM26 3h3v1h-3zM35 3h1v1h-1zM99 3h1v1h-1zM106 3h1v1h-1zM114 3h1v1h-1zM116 3h1v1h-1zM122 3h2v1h-2zM130 3h2v1h-2zM146 3h1v1h-1zM148 3h1v1h-1zM10 4h1v1h-1zM18 4h1v1h-1zM26 4h1v1h-1zM28 4h1v1h-1zM35 4h1v1h-1zM100 4h1v1h-1zM106 4h1v1h-1zM114 4h1v1h-1zM116 4h1v1h-1zM122 4h1v1h-1zM124 4h1v1h-1zM130 4h1v1h-1zM146 4h1v1h-1zM148 4h1v1h-1zM10 5h1v1h-1zM18 5h3v1h-3zM26 5h1v1h-1zM28 5h1v1h-1zM35 5h1v1h-1zM98 5h2v1h-2zM107 5h2v1h-2zM115 5h1v1h-1zM122 5h1v1h-1zM124 5h1v1h-1zM130 5h3v1h-3zM146 5h3v1h-3zM73 59h5v1h-5zM72 60h7v1h-7zM71 61h9v1h-9zM71 62h10v1h-10zM72 63h7v1h-7zM71 64h9v1h-9zM71 65h9v1h-9zM72 66h7v1h-7zM69 67h12v1h-12zM69 68h12v1h-12zM70 69h10v1h-10zM71 70h9v1h-9zM70 71h10v1h-10zM70 72h4v1h-4zM76 72h4v1h-4zM70 73h4v1h-4zM76 73h4v1h-4zM133 73h1v1h-1zM132 74h3v1h-3zM131 75h5v1h-5zM132 76h3v1h-3zM133 77h1v1h-1zM114 80h40v1h-40zM114 81h40v1h-40zM114 82h1v1h-1zM116 82h3v1h-3zM120 82h3v1h-3zM124 82h3v1h-3zM128 82h3v1h-3zM132 82h3v1h-3zM136 82h3v1h-3zM140 82h3v1h-3zM144 82h3v1h-3zM148 82h3v1h-3zM152 82h2v1h-2zM114 83h40v1h-40zM114 84h4v1h-4zM119 84h7v1h-7zM127 84h7v1h-7zM135 84h7v1h-7zM143 84h7v1h-7zM151 84h3v1h-3zM114 85h2v1h-2zM117 85h7v1h-7zM125 85h7v1h-7zM133 85h7v1h-7zM141 85h7v1h-7zM149 85h5v1h-5zM114 86h6v1h-6zM121 86h7v1h-7zM129 86h7v1h-7zM137 86h7v1h-7zM145 86h7v1h-7zM153 86h1v1h-1zM114 87h40v1h-40zM158 121h2v1h-2zM157 122h3v1h-3zM156 123h4v1h-4zM156 124h4v1h-4zM157 125h3v1h-3zM157 126h1v1h-1zM157 127h1v1h-1zM0 128h42v1h-42zM74 128h86v1h-86zM0 129h42v1h-42zM74 129h86v1h-86zM0 130h3v1h-3zM4 130h3v1h-3zM8 130h3v1h-3zM12 130h3v1h-3zM16 130h3v1h-3zM20 130h3v1h-3zM24 130h3v1h-3zM28 130h3v1h-3zM32 130h3v1h-3zM36 130h3v1h-3zM40 130h2v1h-2zM74 130h1v1h-1zM76 130h3v1h-3zM80 130h3v1h-3zM84 130h3v1h-3zM88 130h3v1h-3zM92 130h3v1h-3zM96 130h3v1h-3zM100 130h3v1h-3zM104 130h3v1h-3zM108 130h3v1h-3zM112 130h3v1h-3zM116 130h3v1h-3zM120 130h3v1h-3zM124 130h3v1h-3zM128 130h3v1h-3zM132 130h3v1h-3zM136 130h3v1h-3zM140 130h3v1h-3zM144 130h3v1h-3zM148 130h3v1h-3zM152 130h3v1h-3zM156 130h3v1h-3zM0 131h42v1h-42zM74 131h86v1h-86zM0 132h6v1h-6zM7 132h7v1h-7zM15 132h7v1h-7zM23 132h7v1h-7zM31 132h7v1h-7zM39 132h3v1h-3zM74 132h4v1h-4zM79 132h7v1h-7zM87 132h7v1h-7zM95 132h7v1h-7zM103 132h7v1h-7zM111 132h7v1h-7zM119 132h7v1h-7zM127 132h7v1h-7zM135 132h7v1h-7zM143 132h7v1h-7zM151 132h7v1h-7zM159 132h1v1h-1zM0 133h4v1h-4zM5 133h7v1h-7zM13 133h7v1h-7zM21 133h7v1h-7zM29 133h7v1h-7zM37 133h5v1h-5zM74 133h2v1h-2zM77 133h7v1h-7zM85 133h7v1h-7zM93 133h7v1h-7zM101 133h7v1h-7zM109 133h7v1h-7zM117 133h7v1h-7zM125 133h7v1h-7zM133 133h7v1h-7zM141 133h7v1h-7zM149 133h7v1h-7zM157 133h3v1h-3zM1 134h7v1h-7zM9 134h7v1h-7zM17 134h7v1h-7zM25 134h7v1h-7zM33 134h7v1h-7zM41 134h1v1h-1zM74 134h6v1h-6zM81 134h7v1h-7zM89 134h7v1h-7zM97 134h7v1h-7zM105 134h7v1h-7zM113 134h7v1h-7zM121 134h7v1h-7zM129 134h7v1h-7zM137 134h7v1h-7zM145 134h7v1h-7zM153 134h7v1h-7zM0 135h42v1h-42zM74 135h86v1h-86zM0 136h42v1h-42zM74 136h86v1h-86zM0 137h42v1h-42zM74 137h86v1h-86zM0 138h3v1h-3zM4 138h3v1h-3zM8 138h3v1h-3zM12 138h3v1h-3zM16 138h3v1h-3zM20 138h3v1h-3zM24 138h3v1h-3zM28 138h3v1h-3zM32 138h3v1h-3zM36 138h3v1h-3zM40 138h2v1h-2zM74 138h1v1h-1zM76 138h3v1h-3zM80 138h3v1h-3zM84 138h3v1h-3zM88 138h3v1h-3zM92 138h3v1h-3zM96 138h3v1h-3zM100 138h3v1h-3zM104 138h3v1h-3zM108 138h3v1h-3zM112 138h3v1h-3zM116 138h3v1h-3zM120 138h3v1h-3zM124 138h3v1h-3zM128 138h3v1h-3zM132 138h3v1h-3zM136 138h3v1h-3zM140 138h3v1h-3zM144 138h3v1h-3zM148 138h3v1h-3zM152 138h3v1h-3zM156 138h3v1h-3zM0 139h42v1h-42zM74 139h86v1h-86zM0 140h6v1h-6zM7 140h7v1h-7zM15 140h7v1h-7zM23 140h7v1h-7zM31 140h7v1h-7zM39 140h3v1h-3zM74 140h4v1h-4zM79 140h7v1h-7zM87 140h7v1h-7zM95 140h7v1h-7zM103 140h7v1h-7zM111 140h7v1h-7zM119 140h7v1h-7zM127 140h7v1h-7zM135 140h7v1h-7zM143 140h7v1h-7zM151 140h7v1h-7zM159 140h1v1h-1zM0 141h4v1h-4zM5 141h7v1h-7zM13 141h7v1h-7zM21 141h7v1h-7zM29 141h7v1h-7zM37 141h5v1h-5zM74 141h2v1h-2zM77 141h7v1h-7zM85 141h7v1h-7zM93 141h7v1h-7zM101 141h7v1h-7zM109 141h7v1h-7zM117 141h7v1h-7zM125 141h7v1h-7zM133 141h7v1h-7zM141 141h7v1h-7zM149 141h7v1h-7zM157 141h3v1h-3zM1 142h7v1h-7zM9 142h7v1h-7zM17 142h7v1h-7zM25 142h7v1h-7zM33 142h7v1h-7zM41 142h1v1h-1zM74 142h6v1h-6zM81 142h7v1h-7zM89 142h7v1h-7zM97 142h7v1h-7zM105 142h7v1h-7zM113 142h7v1h-7zM121 142h7v1h-7zM129 142h7v1h-7zM137 142h7v1h-7zM145 142h7v1h-7zM153 142h7v1h-7zM0 143h42v1h-42zM74 143h86v1h-86z"/><path fill="#d0d0d0" d="M73 63h3v1h-3zM77 63h1v1h-1zM72 64h4v1h-4zM77 64h2v1h-2zM72 65h7v1h-7zM74 66h3v1h-3zM70 68h2v1h-2zM74 68h1v1h-1zM78 68h2v1h-2zM74 69h2v1h-2zM75 70h2v1h-2zM71 72h2v1h-2zM77 72h2v1h-2zM133 75h1v1h-1zM114 80h40v1h-40zM158 123h1v1h-1zM0 128h42v1h-42zM74 128h86v1h-86zM0 136h42v1h-42zM74 136h86v1h-86z"/><path fill="#181818" d="M10 1h2v1h-2zM18 1h1v1h-1zM27 1h1v1h-1zM34 1h1v1h-1zM36 1h1v1h-1zM99 1h2v1h-2zM107 1h2v1h-2zM115 1h1v1h-1zM122 1h2v1h-2zM130 1h3v1h-3zM146 1h3v1h-3zM10 2h1v1h-1zM12 2h1v1h-1zM18 2h1v1h-1zM26 2h1v1h-1zM28 2h1v1h-1zM34 2h1v1h-1zM36 2h1v1h-1zM98 2h1v1h-1zM106 2h1v1h-1zM114 2h1v1h-1zM116 2h1v1h-1zM122 2h1v1h-1zM124 2h1v1h-1zM130 2h1v1h-1zM146 2h1v1h-1zM148 2h1v1h-1zM10 3h2v1h-2zM18 3h1v1h-1zM26 3h3v1h-3zM35 3h1v1h-1zM99 3h1v1h-1zM106 3h1v1h-1zM114 3h1v1h-1zM116 3h1v1h-1zM122 3h2v1h-2zM130 3h2v1h-2zM146 3h1v1h-1zM148 3h1v1h-1zM10 4h1v1h-1zM18 4h1v1h-1zM26 4h1v1h-1zM28 4h1v1h-1zM35 4h1v1h-1zM100 4h1v1h-1zM106 4h1v1h-1zM114 4h1v1h-1zM116 4h1v1h-1zM122 4h1v1h-1zM124 4h1v1h-1zM130 4h1v1h-1zM146 4h1v1h-1zM148 4h1v1h-1zM10 5h1v1h-1zM18 5h3v1h-3zM26 5h1v1h-1zM28 5h1v1h-1zM35 5h1v1h-1zM98 5h2v1h-2zM107 5h2v1h-2zM115 5h1v1h-1zM122 5h1v1h-1zM124 5h1v1h-1zM130 5h3v1h-3zM146 5h3v1h-3zM73 59h5v1h-5zM72 60h1v1h-1zM78 60h1v1h-1zM71 61h1v1h-1zM79 61h1v1h-1zM71 62h10v1h-10zM72 63h1v1h-1zM76 63h1v1h-1zM78 63h1v1h-1zM71 64h1v1h-1zM76 64h1v1h-1zM79 64h1v1h-1zM71 65h1v1h-1zM79 65h1v1h-1zM72 66h2v1h-2zM77 66h2v1h-2zM69 67h4v1h-4zM76 67h5v1h-5zM69 68h1v1h-1zM72 68h1v1h-1zM77 68h1v1h-1zM80 68h1v1h-1zM70 69h3v1h-3zM77 69h3v1h-3zM71 70h2v1h-2zM78 70h2v1h-2zM70 71h1v1h-1zM74 71h2v1h-2zM79 71h1v1h-1zM70 72h1v1h-1zM73 72h1v1h-1zM76 72h1v1h-1zM79 72h1v1h-1zM70 73h4v1h-4zM76 73h4v1h-4zM133 73h1v1h-1zM132 74h1v1h-1zM134 74h1v1h-1zM131 75h1v1h-1zM135 75h1v1h-1zM132 76h1v1h-1zM134 76h1v1h-1zM133 77h1v1h-1zM158 121h2v1h-2zM157 122h1v1h-1zM156 123h1v1h-1zM156 124h1v1h-1zM157 125h3v1h-3zM157 126h1v1h-1zM157 127h1v1h-1z"/></g>
<g class="f8" opacity="0"><path fill="#686868" d="M10 1h2v1h-2zM18 1h1v1h-1zM27 1h1v1h-1zM34 1h1v1h-1zM36 1h1v1h-1zM99 1h2v1h-2zM107 1h2v1h-2zM115 1h1v1h-1zM122 1h2v1h-2zM130 1h3v1h-3zM146 1h3v1h-3zM10 2h1v1h-1zM12 2h1v1h-1zM18 2h1v1h-1zM26 2h1v1h-1zM28 2h1v1h-1zM34 2h1v1h-1zM36 2h1v1h-1zM98 2h1v1h-1zM106 2h1v1h-1zM114 2h1v1h-1zM116 2h1v1h-1zM122 2h1v1h-1zM124 2h1v1h-1zM130 2h1v1h-1zM146 2h1v1h-1zM148 2h1v1h-1zM10 3h2v1h-2zM18 3h1v1h-1zM26 3h3v1h-3zM35 3h1v1h-1zM99 3h1v1h-1zM106 3h1v1h-1zM114 3h1v1h-1zM116 3h1v1h-1zM122 3h2v1h-2zM130 3h2v1h-2zM146 3h1v1h-1zM148 3h1v1h-1zM10 4h1v1h-1zM18 4h1v1h-1zM26 4h1v1h-1zM28 4h1v1h-1zM35 4h1v1h-1zM100 4h1v1h-1zM106 4h1v1h-1zM114 4h1v1h-1zM116 4h1v1h-1zM122 4h1v1h-1zM124 4h1v1h-1zM130 4h1v1h-1zM146 4h1v1h-1zM148 4h1v1h-1zM10 5h1v1h-1zM18 5h3v1h-3zM26 5h1v1h-1zM28 5h1v1h-1zM35 5h1v1h-1zM98 5h2v1h-2zM107 5h2v1h-2zM115 5h1v1h-1zM122 5h1v1h-1zM124 5h1v1h-1zM130 5h3v1h-3zM146 5h3v1h-3zM91 73h1v1h-1zM90 74h3v1h-3zM89 75h5v1h-5zM90 76h3v1h-3zM91 77h1v1h-1zM72 80h40v1h-40zM72 81h40v1h-40zM72 82h1v1h-1zM74 82h3v1h-3zM78 82h3v1h-3zM82 82h3v1h-3zM86 82h3v1h-3zM90 82h3v1h-3zM94 82h3v1h-3zM98 82h3v1h-3zM102 82h3v1h-3zM106 82h3v1h-3zM110 82h2v1h-2zM72 83h40v1h-40zM72 84h4v1h-4zM77 84h7v1h-7zM85 84h7v1h-7zM93 84h7v1h-7zM101 84h7v1h-7zM109 84h3v1h-3zM72 85h2v1h-2zM75 85h7v1h-7zM83 85h7v1h-7zM91 85h7v1h-7zM99 85h7v1h-7zM107 85h5v1h-5zM72 86h6v1h-6zM79 86h7v1h-7zM87 86h7v1h-7zM95 86h7v1h-7zM103 86h7v1h-7zM111 86h1v1h-1zM72 87h40v1h-40zM73 112h5v1h-5zM72 113h7v1h-7zM71 114h9v1h-9zM71 115h10v1h-10zM72 116h7v1h-7zM71 117h9v1h-9zM71 118h9v1h-9zM72 119h7v1h-7zM71 120h8v1h-8zM69 121h11v1h-11zM105 121h4v1h-4zM69 122h12v1h-12zM104 122h6v1h-6zM70 123h11v1h-11zM103 123h8v1h-8zM71 124h9v1h-9zM103 124h8v1h-8zM70 125h5v1h-5zM77 125h4v1h-4zM104 125h6v1h-6zM69 126h4v1h-4zM78 126h4v1h-4zM104 126h1v1h-1zM109 126h1v1h-1zM69 127h4v1h-4zM78 127h4v1h-4zM104 127h1v1h-1zM109 127h1v1h-1zM32 128h128v1h-128zM32 129h128v1h-128zM32 130h1v1h-1zM34 130h3v1h-3zM38 130h3v1h-3zM42 130h3v1h-3zM46 130h3v1h-3zM50 130h3v1h-3zM54 130h3v1h-3zM58 130h3v1h-3zM62 130h3v1h-3zM66 130h3v1h-3zM70 130h3v1h-3zM74 130h3v1h-3zM78 130h3v1h-3zM82 130h3v1h-3zM86 130h3v1h-3zM90 130h3v1h-3zM94 130h3v1h-3zM98 130h3v1h-3zM102 130h3v1h-3zM106 130h3v1h-3zM110 130h3v1h-3zM114 130h3v1h-3zM118 130h3v1h-3zM122 130h3v1h-3zM126 130h3v1h-3zM130 130h3v1h-3zM134 130h3v1h-3zM138 130h3v1h-3zM142 130h3v1h-3zM146 130h3v1h-3zM150 130h3v1h-3zM154 130h3v1h-3zM158 130h2v1h-2zM32 131h128v1h-128zM32 132h4v1h-4zM37 132h7v1h-7zM45 132h7v1h-7zM53 132h7v1h-7zM61 132h7v1h-7zM69 132h7v1h-7zM77 132h7v1h-7zM85 132h7v1h-7zM93 132h7v1h-7zM101 132h7v1h-7zM109 132h7v1h-7zM117 132h7v1h-7zM125 132h7v1h-7zM133 132h7v1h-7zM141 132h7v1h-7zM149 132h7v1h-7zM157 132h3v1h-3zM32 133h2v1h-2zM35 133h7v1h-7zM43 133h7v1h-7zM51 133h7v1h-7zM59 133h7v1h-7zM67 133h7v1h-7zM75 133h7v1h-7zM83 133h7v1h-7zM91 133h7v1h-7zM99 133h7v1h-7zM107 133h7v1h-7zM115 133h7v1h-7zM123 133h7v1h-7zM131 133h7v1h-7zM139 133h7v1h-7zM147 133h7v1h-7zM155 133h5v1h-5zM32 134h6v1h-6zM39 134h7v1h-7zM47 134h7v1h-7zM55 134h7v1h-7zM63 134h7v1h-7zM71 134h7v1h-7zM79 134h7v1h-7zM87 134h7v1h-7zM95 134h7v1h-7zM103 134h7v1h-7zM111 134h7v1h-7zM119 134h7v1h-7zM127 134h7v1h-7zM135 134h7v1h-7zM143 134h7v1h-7zM151 134h7v1h-7zM159 134h1v1h-1zM32 135h128v1h-128zM32 136h128v1h-128zM32 137h128v1h-128zM32 138h1v1h-1zM34 138h3v1h-3zM38 138h3v1h-3zM42 138h3v1h-3zM46 138h3v1h-3zM50 138h3v1h-3zM54 138h3v1h-3zM58 138h3v1h-3zM62 138h3v1h-3zM66 138h3v1h-3zM70 138h3v1h-3zM74 138h3v1h-3zM78 138h3v1h-3zM82 138h3v1h-3zM86 138h3v1h-3zM90 138h3v1h-3zM94 138h3v1h-3zM98 138h3v1h-3zM102 138h3v1h-3zM106 138h3v1h-3zM110 138h3v1h-3zM114 138h3v1h-3zM118 138h3v1h-3zM122 138h3v1h-3zM126 138h3v1h-3zM130 138h3v1h-3zM134 138h3v1h-3zM138 138h3v1h-3zM142 138h3v1h-3zM146 138h3v1h-3zM150 138h3v1h-3zM154 138h3v1h-3zM158 138h2v1h-2zM32 139h128v1h-128zM32 140h4v1h-4zM37 140h7v1h-7zM45 140h7v1h-7zM53 140h7v1h-7zM61 140h7v1h-7zM69 140h7v1h-7zM77 140h7v1h-7zM85 140h7v1h-7zM93 140h7v1h-7zM101 140h7v1h-7zM109 140h7v1h-7zM117 140h7v1h-7zM125 140h7v1h-7zM133 140h7v1h-7zM141 140h7v1h-7zM149 140h7v1h-7zM157 140h3v1h-3zM32 141h2v1h-2zM35 141h7v1h-7zM43 141h7v1h-7zM51 141h7v1h-7zM59 141h7v1h-7zM67 141h7v1h-7zM75 141h7v1h-7zM83 141h7v1h-7zM91 141h7v1h-7zM99 141h7v1h-7zM107 141h7v1h-7zM115 141h7v1h-7zM123 141h7v1h-7zM131 141h7v1h-7zM139 141h7v1h-7zM147 141h7v1h-7zM155 141h5v1h-5zM32 142h6v1h-6zM39 142h7v1h-7zM47 142h7v1h-7zM55 142h7v1h-7zM63 142h7v1h-7zM71 142h7v1h-7zM79 142h7v1h-7zM87 142h7v1h-7zM95 142h7v1h-7zM103 142h7v1h-7zM111 142h7v1h-7zM119 142h7v1h-7zM127 142h7v1h-7zM135 142h7v1h-7zM143 142h7v1h-7zM151 142h7v1h-7zM159 142h1v1h-1zM32 143h128v1h-128z"/><path fill="#d0d0d0" d="M91 75h1v1h-1zM72 80h40v1h-40zM73 116h3v1h-3zM77 116h1v1h-1zM72 117h4v1h-4zM77 117h2v1h-2zM72 118h7v1h-7zM74 119h3v1h-3zM70 121h2v1h-2zM74 121h1v1h-1zM70 122h2v1h-2zM74 122h2v1h-2zM79 122h1v1h-1zM75 123h2v1h-2zM79 123h1v1h-1zM105 123h1v1h-1zM108 123h1v1h-1zM70 126h2v1h-2zM79 126h2v1h-2zM32 128h128v1h-128zM32 136h128v1h-128z"/><path fill="#181818" d="M10 1h2v1h-2zM18 1h1v1h-1zM27 1h1v1h-1zM34 1h1v1h-1zM36 1h1v1h-1zM99 1h2v1h-2zM107 1h2v1h-2zM115 1h1v1h-1zM122 1h2v1h-2zM130 1h3v1h-3zM146 1h3v1h-3zM10 2h1v1h-1zM12 2h1v1h-1zM18 2h1v1h-1zM26 2h1v1h-1zM28 2h1v1h-1zM34 2h1v1h-1zM36 2h1v1h-1zM98 2h1v1h-1zM106 2h1v1h-1zM114 2h1v1h-1zM116 2h1v1h-1zM122 2h1v1h-1zM124 2h1v1h-1zM130 2h1v1h-1zM146 2h1v1h-1zM148 2h1v1h-1zM10 3h2v1h-2zM18 3h1v1h-1zM26 3h3v1h-3zM35 3h1v1h-1zM99 3h1v1h-1zM106 3h1v1h-1zM114 3h1v1h-1zM116 3h1v1h-1zM122 3h2v1h-2zM130 3h2v1h-2zM146 3h1v1h-1zM148 3h1v1h-1zM10 4h1v1h-1zM18 4h1v1h-1zM26 4h1v1h-1zM28 4h1v1h-1zM35 4h1v1h-1zM100 4h1v1h-1zM106 4h1v1h-1zM114 4h1v1h-1zM116 4h1v1h-1zM122 4h1v1h-1zM124 4h1v1h-1zM130 4h1v1h-1zM146 4h1v1h-1zM148 4h1v1h-1zM10 5h1v1h-1zM18 5h3v1h-3zM26 5h1v1h-1zM28 5h1v1h-1zM35 5h1v1h-1zM98 5h2v1h-2zM107 5h2v1h-2zM115 5h1v1h-1zM122 5h1v1h-1zM124 5h1v1h-1zM130 5h3v1h-3zM146 5h3v1h-3zM91 73h1v1h-1zM90 74h1v1h-1zM92 74h1v1h-1zM89 75h1v1h-1zM93 75h1v1h-1zM90 76h1v1h-1zM92 76h1v1h-1zM91 77h1v1h-1zM73 112h5v1h-5zM72 113h1v1h-1zM78 113h1v1h-1zM71 114h1v1h-1zM79 114h1v1h-1zM71 115h10v1h-10zM72 116h1v1h-1zM76 116h1v1h-1zM78 116h1v1h-1zM71 117h1v1h-1zM76 117h1v1h-1zM79 117h1v1h-1zM71 118h1v1h-1zM79 118h1v1h-1zM72 119h2v1h-2zM77 119h2v1h-2zM71 120h2v1h-2zM76 120h3v1h-3zM69 121h1v1h-1zM72 121h1v1h-1zM78 121h2v1h-2zM105 121h4v1h-4zM69 122h1v1h-1zM72 122h1v1h-1zM78 122h1v1h-1zM80 122h1v1h-1zM104 122h1v1h-1zM109 122h1v1h-1zM70 123h3v1h-3zM78 123h1v1h-1zM80 123h1v1h-1zM103 123h1v1h-1zM110 123h1v1h-1zM71 124h1v1h-1zM75 124h2v1h-2zM79 124h1v1h-1zM103 124h1v1h-1zM110 124h1v1h-1zM70 125h1v1h-1zM73 125h2v1h-2zM77 125h1v1h-1zM80 125h1v1h-1zM104 125h6v1h-6zM69 126h1v1h-1zM72 126h1v1h-1zM78 126h1v1h-1zM81 126h1v1h-1zM104 126h1v1h-1zM109 126h1v1h-1zM69 127h4v1h-4zM78 127h4v1h-4zM104 127h1v1h-1zM109 127h1v1h-1z"/></g>
<g class="f9" opacity="0"><path fill="#686868" d="M10 1h2v1h-2zM18 1h1v1h-1zM27 1h1v1h-1zM34 1h1v1h-1zM36 1h1v1h-1zM99 1h2v1h-2zM107 1h2v1h-2zM115 1h1v1h-1zM122 1h2v1h-2zM130 1h3v1h-3zM146 1h3v1h-3zM10 2h1v1h-1zM12 2h1v1h-1zM18 2h1v1h-1zM26 2h1v1h-1zM28 2h1v1h-1zM34 2h1v1h-1zM36 2h1v1h-1zM98 2h1v1h-1zM106 2h1v1h-1zM114 2h1v1h-1zM116 2h1v1h-1zM122 2h1v1h-1zM124 2h1v1h-1zM130 2h1v1h-1zM146 2h1v1h-1zM148 2h1v1h-1zM10 3h2v1h-2zM18 3h1v1h-1zM26 3h3v1h-3zM35 3h1v1h-1zM99 3h1v1h-1zM106 3h1v1h-1zM114 3h1v1h-1zM116 3h1v1h-1zM122 3h2v1h-2zM130 3h2v1h-2zM146 3h1v1h-1zM148 3h1v1h-1zM10 4h1v1h-1zM18 4h1v1h-1zM26 4h1v1h-1zM28 4h1v1h-1zM35 4h1v1h-1zM100 4h1v1h-1zM106 4h1v1h-1zM114 4h1v1h-1zM116 4h1v1h-1zM122 4h1v1h-1zM124 4h1v1h-1zM130 4h1v1h-1zM146 4h1v1h-1zM148 4h1v1h-1zM10 5h1v1h-1zM18 5h3v1h-3zM26 5h1v1h-1zM28 5h1v1h-1zM35 5h1v1h-1zM98 5h2v1h-2zM107 5h2v1h-2zM115 5h1v1h-1zM122 5h1v1h-1zM124 5h1v1h-1zM130 5h3v1h-3zM146 5h3v1h-3zM79 73h1v1h-1zM78 74h3v1h-3zM77 75h5v1h-5zM78 76h3v1h-3zM79 77h1v1h-1zM60 80h40v1h-40zM60 81h40v1h-40zM60 82h1v1h-1zM62 82h3v1h-3zM66 82h3v1h-3zM70 82h3v1h-3zM74 82h3v1h-3zM78 82h3v1h-3zM82 82h3v1h-3zM86 82h3v1h-3zM90 82h3v1h-3zM94 82h3v1h-3zM98 82h2v1h-2zM60 83h40v1h-40zM60 84h4v1h-4zM65 84h7v1h-7zM73 84h7v1h-7zM81 84h7v1h-7zM89 84h7v1h-7zM97 84h3v1h-3zM60 85h2v1h-2zM63 85h7v1h-7zM71 85h7v1h-7zM79 85h7v1h-7zM87 85h7v1h-7zM95 85h5v1h-5zM60 86h6v1h-6zM67 86h7v1h-7zM75 86h7v1h-7zM83 86h7v1h-7zM91 86h7v1h-7zM99 86h1v1h-1zM60 87h40v1h-40zM73 112h5v1h-5zM72 113h7v1h-7zM71 114h9v1h-9zM71 115h10v1h-10zM72 116h7v1h-7zM71 117h9v1h-9zM71 118h9v1h-9zM72 119h7v1h-7zM71 120h8v1h-8zM69 121h11v1h-11zM90 121h4v1h-4zM69 122h12v1h-12zM89 122h6v1h-6zM70 123h11v1h-11zM88 123h8v1h-8zM71 124h9v1h-9zM88 124h8v1h-8zM70 125h5v1h-5zM77 125h4v1h-4zM89 125h6v1h-6zM69 126h4v1h-4zM78 126h4v1h-4zM89 126h1v1h-1zM94 126h1v1h-1zM69 127h4v1h-4zM78 127h4v1h-4zM89 127h1v1h-1zM94 127h1v1h-1zM20 128h140v1h-140zM20 129h140v1h-140zM20 130h1v1h-1zM22 130h3v1h-3zM26 130h3v1h-3zM30 130h3v1h-3zM34 130h3v1h-3zM38 130h3v1h-3zM42 130h3v1h-3zM46 130h3v1h-3zM50 130h3v1h-3zM54 130h3v1h-3zM58 130h3v1h-3zM62 130h3v1h-3zM66 130h3v1h-3zM70 130h3v1h-3zM74 130h3v1h-3zM78 130h3v1h-3zM82 130h3v1h-3zM86 130h3v1h-3zM90 130h3v1h-3zM94 130h3v1h-3zM98 130h3v1h-3zM102 130h3v1h-3zM106 130h3v1h-3zM110 130h3v1h-3zM114 130h3v1h-3zM118 130h3v1h-3zM122 130h3v1h-3zM126 130h3v1h-3zM130 130h3v1h-3zM134 130h3v1h-3zM138 130h3v1h-3zM142 130h3v1h-3zM146 130h3v1h-3zM150 130h3v1h-3zM154 130h3v1h-3zM158 130h2v1h-2zM20 131h140v1h-140zM20 132h4v1h-4zM25 132h7v1h-7zM33 132h7v1h-7zM41 132h7v1h-7zM49 132h7v1h-7zM57 132h7v1h-7zM65 132h7v1h-7zM73 132h7v1h-7zM81 132h7v1h-7zM89 132h7v1h-7zM97 132h7v1h-7zM105 132h7v1h-7zM113 132h7v1h-7zM121 132h7v1h-7zM129 132h7v1h-7zM137 132h7v1h-7zM145 132h7v1h-7zM153 132h7v1h-7zM20 133h2v1h-2zM23 133h7v1h-7zM31 133h7v1h-7zM39 133h7v1h-7zM47 133h7v1h-7zM55 133h7v1h-7zM63 133h7v1h-7zM71 133h7v1h-7zM79 133h7v1h-7zM87 133h7v1h-7zM95 133h7v1h-7zM103 133h7v1h-7zM111 133h7v1h-7zM119 133h7v1h-7zM127 133h7v1h-7zM135 133h7v1h-7zM143 133h7v1h-7zM151 133h7v1h-7zM159 133h1v1h-1zM20 134h6v1h-6zM27 134h7v1h-7zM35 134h7v1h-7zM43 134h7v1h-7zM51 134h7v1h-7zM59 134h7v1h-7zM67 134h7v1h-7zM75 134h7v1h-7zM83 134h7v1h-7zM91 134h7v1h-7zM99 134h7v1h-7zM107 134h7v1h-7zM115 134h7v1h-7zM123 134h7v1h-7zM131 134h7v1h-7zM139 134h7v1h-7zM147 134h7v1h-7zM155 134h5v1h-5zM20 135h140v1h-140zM20 136h140v1h-140zM20 137h140v1h-140zM20 138h1v1h-1zM22 138h3v1h-3zM26 138h3v1h-3zM30 138h3v1h-3zM34 138h3v1h-3zM38 138h3v1h-3zM42 138h3v1h-3zM46 138h3v1h-3zM50 138h3v1h-3zM54 138h3v1h-3zM58 138h3v1h-3zM62 138h3v1h-3zM66 138h3v1h-3zM70 138h3v1h-3zM74 138h3v1h-3zM78 138h3v1h-3zM82 138h3v1h-3zM86 138h3v1h-3zM90 138h3v1h-3zM94 138h3v1h-3zM98 138h3v1h-3zM102 138h3v1h-3zM106 138h3v1h-3zM110 138h3v1h-3zM114 138h3v1h-3zM118 138h3v1h-3zM122 138h3v1h-3zM126 138h3v1h-3zM130 138h3v1h-3zM134 138h3v1h-3zM138 138h3v1h-3zM142 138h3v1h-3zM146 138h3v1h-3zM150 138h3v1h-3zM154 138h3v1h-3zM158 138h2v1h-2zM20 139h140v1h-140zM20 140h4v1h-4zM25 140h7v1h-7zM33 140h7v1h-7zM41 140h7v1h-7zM49 140h7v1h-7zM57 140h7v1h-7zM65 140h7v1h-7zM73 140h7v1h-7zM81 140h7v1h-7zM89 140h7v1h-7zM97 140h7v1h-7zM105 140h7v1h-7zM113 140h7v1h-7zM121 140h7v1h-7zM129 140h7v1h-7zM137 140h7v1h-7zM145 140h7v1h-7zM153 140h7v1h-7zM20 141h2v1h-2zM23 141h7v1h-7zM31 141h7v1h-7zM39 141h7v1h-7zM47 141h7v1h-7zM55 141h7v1h-7zM63 141h7v1h-7zM71 141h7v1h-7zM79 141h7v1h-7zM87 141h7v1h-7zM95 141h7v1h-7zM103 141h7v1h-7zM111 141h7v1h-7zM119 141h7v1h-7zM127 141h7v1h-7zM135 141h7v1h-7zM143 141h7v1h-7zM151 141h7v1h-7zM159 141h1v1h-1zM20 142h6v1h-6zM27 142h7v1h-7zM35 142h7v1h-7zM43 142h7v1h-7zM51 142h7v1h-7zM59 142h7v1h-7zM67 142h7v1h-7zM75 142h7v1h-7zM83 142h7v1h-7zM91 142h7v1h-7zM99 142h7v1h-7zM107 142h7v1h-7zM115 142h7v1h-7zM123 142h7v1h-7zM131 142h7v1h-7zM139 142h7v1h-7zM147 142h7v1h-7zM155 142h5v1h-5zM20 143h140v1h-140z"/><path fill="#d0d0d0" d="M79 75h1v1h-1zM60 80h40v1h-40zM73 116h3v1h-3zM77 116h1v1h-1zM72 117h4v1h-4zM77 117h2v1h-2zM72 118h7v1h-7zM74 119h3v1h-3zM70 121h2v1h-2zM74 121h1v1h-1zM70 122h2v1h-2zM74 122h2v1h-2zM79 122h1v1h-1zM75 123h2v1h-2zM79 123h1v1h-1zM90 123h1v1h-1zM93 123h1v1h-1zM70 126h2v1h-2zM79 126h2v1h-2zM20 128h140v1h-140zM20 136h140v1h-140z"/><path fill="#181818" d="M10 1h2v1h-2zM18 1h1v1h-1zM27 1h1v1h-1zM34 1h1v1h-1zM36 1h1v1h-1zM99 1h2v1h-2zM107 1h2v1h-2zM115 1h1v1h-1zM122 1h2v1h-2zM130 1h3v1h-3zM146 1h3v1h-3zM10 2h1v1h-1zM12 2h1v1h-1zM18 2h1v1h-1zM26 2h1v1h-1zM28 2h1v1h-1zM34 2h1v1h-1zM36 2h1v1h-1zM98 2h1v1h-1zM106 2h1v1h-1zM114 2h1v1h-1zM116 2h1v1h-1zM122 2h1v1h-1zM124 2h1v1h-1zM130 2h1v1h-1zM146 2h1v1h-1zM148 2h1v1h-1zM10 3h2v1h-2zM18 3h1v1h-1zM26 3h3v1h-3zM35 3h1v1h-1zM99 3h1v1h-1zM106 3h1v1h-1zM114 3h1v1h-1zM116 3h1v1h-1zM122 3h2v1h-2zM130 3h2v1h-2zM146 3h1v1h-1zM148 3h1v1h-1zM10 4h1v1h-1zM18 4h1v1h-1zM26 4h1v1h-1zM28 4h1v1h-1zM35 4h1v1h-1zM100 4h1v1h-1zM106 4h1v1h-1zM114 4h1v1h-1zM116 4h1v1h-1zM122 4h1v1h-1zM124 4h1v1h-1zM130 4h1v1h-1zM146 4h1v1h-1zM148 4h1v1h-1zM10 5h1v1h-1zM18 5h3v1h-3zM26 5h1v1h-1zM28 5h1v1h-1zM35 5h1v1h-1zM98 5h2v1h-2zM107 5h2v1h-2zM115 5h1v1h-1zM122 5h1v1h-1zM124 5h1v1h-1zM130 5h3v1h-3zM146 5h3v1h-3zM79 73h1v1h-1zM78 74h1v1h-1zM80 74h1v1h-1zM77 75h1v1h-1zM81 75h1v1h-1zM78 76h1v1h-1zM80 76h1v1h-1zM79 77h1v1h-1zM73 112h5v1h-5zM72 113h1v1h-1zM78 113h1v1h-1zM71 114h1v1h-1zM79 114h1v1h-1zM71 115h10v1h-10zM72 116h1v1h-1zM76 116h1v1h-1zM78 116h1v1h-1zM71 117h1v1h-1zM76 117h1v1h-1zM79 117h1v1h-1zM71 118h1v1h-1zM79 118h1v1h-1zM72 119h2v1h-2zM77 119h2v1h-2zM71 120h2v1h-2zM76 120h3v1h-3zM69 121h1v1h-1zM72 121h1v1h-1zM78 121h2v1h-2zM90 121h4v1h-4zM69 122h1v1h-1zM72 122h1v1h-1zM78 122h1v1h-1zM80 122h1v1h-1zM89 122h1v1h-1zM94 122h1v1h-1zM70 123h3v1h-3zM78 123h1v1h-1zM80 123h1v1h-1zM88 123h1v1h-1zM95 123h1v1h-1zM71 124h1v1h-1zM75 124h2v1h-2zM79 124h1v1h-1zM88 124h1v1h-1zM95 124h1v1h-1zM70 125h1v1h-1zM73 125h2v1h-2zM77 125h1v1h-1zM80 125h1v1h-1zM89 125h6v1h-6zM69 126h1v1h-1zM72 126h1v1h-1zM78 126h1v1h-1zM81 126h1v1h-1zM89 126h1v1h-1zM94 126h1v1h-1zM69 127h4v1h-4zM78 127h4v1h-4zM89 127h1v1h-1zM94 127h1v1h-1z"/></g>
<g class="f10" opacity="1"><path fill="#686868" d="M10 1h2v1h-2zM18 1h3v1h-3zM26 1h3v1h-3zM34 1h2v1h-2zM42 1h1v1h-1zM44 1h1v1h-1zM99 1h2v1h-2zM107 1h2v1h-2zM115 1h1v1h-1zM122 1h2v1h-2zM130 1h3v1h-3zM146 1h3v1h-3zM10 2h1v1h-1zM12 2h1v1h-1zM18 2h1v1h-1zM27 2h1v1h-1zM34 2h1v1h-1zM36 2h1v1h-1zM42 2h1v1h-1zM44 2h1v1h-1zM98 2h1v1h-1zM106 2h1v1h-1zM114 2h1v1h-1zM116 2h1v1h-1zM122 2h1v1h-1zM124 2h1v1h-1zM130 2h1v1h-1zM146 2h1v1h-1zM148 2h1v1h-1zM10 3h2v1h-2zM18 3h2v1h-2zM27 3h1v1h-1zM34 3h2v1h-2zM43 3h1v1h-1zM99 3h1v1h-1zM106 3h1v1h-1zM114 3h1v1h-1zM116 3h1v1h-1zM122 3h2v1h-2zM130 3h2v1h-2zM146 3h1v1h-1zM148 3h1v1h-1zM10 4h1v1h-1zM12 4h1v1h-1zM18 4h1v1h-1zM27 4h1v1h-1zM34 4h1v1h-1zM36 4h1v1h-1zM43 4h1v1h-1zM100 4h1v1h-1zM106 4h1v1h-1zM114 4h1v1h-1zM116 4h1v1h-1zM122 4h1v1h-1zM124 4h1v1h-1zM130 4h1v1h-1zM146 4h1v1h-1zM148 4h1v1h-1zM10 5h1v1h-1zM12 5h1v1h-1zM18 5h3v1h-3zM27 5h1v1h-1zM34 5h1v1h-1zM36 5h1v1h-1zM43 5h1v1h-1zM98 5h2v1h-2zM107 5h2v1h-2zM115 5h1v1h-1zM122 5h1v1h-1zM124 5h1v1h-1zM130 5h3v1h-3zM146 5h3v1h-3zM71 73h1v1h-1zM70 74h3v1h-3zM69 75h5v1h-5zM70 76h3v1h-3zM71 77h1v1h-1zM52 80h40v1h-40zM52 81h40v1h-40zM52 82h1v1h-1zM54 82h3v1h-3zM58 82h3v1h-3zM62 82h3v1h-3zM66 82h3v1h-3zM70 82h3v1h-3zM74 82h3v1h-3zM78 82h3v1h-3zM82 82h3v1h-3zM86 82h3v1h-3zM90 82h2v1h-2zM52 83h40v1h-40zM52 84h4v1h-4zM57 84h7v1h-7zM65 84h7v1h-7zM73 84h7v1h-7zM81 84h7v1h-7zM89 84h3v1h-3zM52 85h2v1h-2zM55 85h7v1h-7zM63 85h7v1h-7zM71 85h7v1h-7zM79 85h7v1h-7zM87 85h5v1h-5zM52 86h6v1h-6zM59 86h7v1h-7zM67 86h7v1h-7zM75 86h7v1h-7zM83 86h7v1h-7zM91 86h1v1h-1zM52 87h40v1h-40zM73 112h5v1h-5zM72 113h7v1h-7zM71 114h9v1h-9zM71 115h10v1h-10zM72 116h8v1h-8zM72 117h8v1h-8zM72 118h8v1h-8zM73 119h6v1h-6zM69 120h2v1h-2zM72 120h6v1h-6zM79 120h2v1h-2zM68 121h16v1h-16zM69 122h16v1h-16zM71 123h15v1h-15zM72 124h14v1h-14zM72 125h3v1h-3zM77 125h8v1h-8zM71 126h4v1h-4zM77 126h4v1h-4zM84 126h1v1h-1zM71 127h4v1h-4zM77 127h4v1h-4zM84 127h1v1h-1zM12 128h148v1h-148zM12 129h148v1h-148zM12 130h1v1h-1zM14 130h3v1h-3zM18 130h3v1h-3zM22 130h3v1h-3zM26 130h3v1h-3zM30 130h3v1h-3zM34 130h3v1h-3zM38 130h3v1h-3zM42 130h3v1h-3zM46 130h3v1h-3zM50 130h3v1h-3zM54 130h3v1h-3zM58 130h3v1h-3zM62 130h3v1h-3zM66 130h3v1h-3zM70 130h3v1h-3zM74 130h3v1h-3zM78 130h3v1h-3zM82 130h3v1h-3zM86 130h3v1h-3zM90 130h3v1h-3zM94 130h3v1h-3zM98 130h3v1h-3zM102 130h3v1h-3zM106 130h3v1h-3zM110 130h3v1h-3zM114 130h3v1h-3zM118 130h3v1h-3zM122 130h3v1h-3zM126 130h3v1h-3zM130 130h3v1h-3zM134 130h3v1h-3zM138 130h3v1h-3zM142 130h3v1h-3zM146 130h3v1h-3zM150 130h3v1h-3zM154 130h3v1h-3zM158 130h2v1h-2zM12 131h148v1h-148zM12 132h4v1h-4zM17 132h7v1h-7zM25 132h7v1h-7zM33 132h7v1h-7zM41 132h7v1h-7zM49 132h7v1h-7zM57 132h7v1h-7zM65 132h7v1h-7zM73 132h7v1h-7zM81 132h7v1h-7zM89 132h7v1h-7zM97 132h7v1h-7zM105 132h7v1h-7zM113 132h7v1h-7zM121 132h7v1h-7zM129 132h7v1h-7zM137 132h7v1h-7zM145 132h7v1h-7zM153 132h7v1h-7zM12 133h2v1h-2zM15 133h7v1h-7zM23 133h7v1h-7zM31 133h7v1h-7zM39 133h7v1h-7zM47 133h7v1h-7zM55 133h7v1h-7zM63 133h7v1h-7zM71 133h7v1h-7zM79 133h7v1h-7zM87 133h7v1h-7zM95 133h7v1h-7zM103 133h7v1h-7zM111 133h7v1h-7zM119 133h7v1h-7zM127 133h7v1h-7zM135 133h7v1h-7zM143 133h7v1h-7zM151 133h7v1h-7zM159 133h1v1h-1zM12 134h6v1h-6zM19 134h7v1h-7zM27 134h7v1h-7zM35 134h7v1h-7zM43 134h7v1h-7zM51 134h7v1h-7zM59 134h7v1h-7zM67 134h7v1h-7zM75 134h7v1h-7zM83 134h7v1h-7zM91 134h7v1h-7zM99 134h7v1h-7zM107 134h7v1h-7zM115 134h7v1h-7zM123 134h7v1h-7zM131 134h7v1h-7zM139 134h7v1h-7zM147 134h7v1h-7zM155 134h5v1h-5zM12 135h148v1h-148zM12 136h148v1h-148zM12 137h148v1h-148zM12 138h1v1h-1zM14 138h3v1h-3zM18 138h3v1h-3zM22 138h3v1h-3zM26 138h3v1h-3zM30 138h3v1h-3zM34 138h3v1h-3zM38 138h3v1h-3zM42 138h3v1h-3zM46 138h3v1h-3zM50 138h3v1h-3zM54 138h3v1h-3zM58 138h3v1h-3zM62 138h3v1h-3zM66 138h3v1h-3zM70 138h3v1h-3zM74 138h3v1h-3zM78 138h3v1h-3zM82 138h3v1h-3zM86 138h3v1h-3zM90 138h3v1h-3zM94 138h3v1h-3zM98 138h3v1h-3zM102 138h3v1h-3zM106 138h3v1h-3zM110 138h3v1h-3zM114 138h3v1h-3zM118 138h3v1h-3zM122 138h3v1h-3zM126 138h3v1h-3zM130 138h3v1h-3zM134 138h3v1h-3zM138 138h3v1h-3zM142 138h3v1h-3zM146 138h3v1h-3zM150 138h3v1h-3zM154 138h3v1h-3zM158 138h2v1h-2zM12 139h148v1h-148zM12 140h4v1h-4zM17 140h7v1h-7zM25 140h7v1h-7zM33 140h7v1h-7zM41 140h7v1h-7zM49 140h7v1h-7zM57 140h7v1h-7zM65 140h7v1h-7zM73 140h7v1h-7zM81 140h7v1h-7zM89 140h7v1h-7zM97 140h7v1h-7zM105 140h7v1h-7zM113 140h7v1h-7zM121 140h7v1h-7zM129 140h7v1h-7zM137 140h7v1h-7zM145 140h7v1h-7zM153 140h7v1h-7zM12 141h2v1h-2zM15 141h7v1h-7zM23 141h7v1h-7zM31 141h7v1h-7zM39 141h7v1h-7zM47 141h7v1h-7zM55 141h7v1h-7zM63 141h7v1h-7zM71 141h7v1h-7zM79 141h7v1h-7zM87 141h7v1h-7zM95 141h7v1h-7zM103 141h7v1h-7zM111 141h7v1h-7zM119 141h7v1h-7zM127 141h7v1h-7zM135 141h7v1h-7zM143 141h7v1h-7zM151 141h7v1h-7zM159 141h1v1h-1zM12 142h6v1h-6zM19 142h7v1h-7zM27 142h7v1h-7zM35 142h7v1h-7zM43 142h7v1h-7zM51 142h7v1h-7zM59 142h7v1h-7zM67 142h7v1h-7zM75 142h7v1h-7zM83 142h7v1h-7zM91 142h7v1h-7zM99 142h7v1h-7zM107 142h7v1h-7zM115 142h7v1h-7zM123 142h7v1h-7zM131 142h7v1h-7zM139 142h7v1h-7zM147 142h7v1h-7zM155 142h5v1h-5zM12 143h148v1h-148z"/><path fill="#d0d0d0" d="M71 75h1v1h-1zM52 80h40v1h-40zM73 116h6v1h-6zM73 117h1v1h-1zM75 117h2v1h-2zM78 117h1v1h-1zM73 118h2v1h-2zM77 118h2v1h-2zM74 119h4v1h-4zM69 121h2v1h-2zM75 121h1v1h-1zM79 121h2v1h-2zM75 122h2v1h-2zM76 123h1v1h-1zM80 123h1v1h-1zM83 123h1v1h-1zM72 126h2v1h-2zM78 126h2v1h-2zM12 128h148v1h-148zM12 136h148v1h-148z"/><path fill="#181818" d="M10 1h2v1h-2zM18 1h3v1h-3zM26 1h3v1h-3zM34 1h2v1h-2zM42 1h1v1h-1zM44 1h1v1h-1zM99 1h2v1h-2zM107 1h2v1h-2zM115 1h1v1h-1zM122 1h2v1h-2zM130 1h3v1h-3zM146 1h3v1h-3zM10 2h1v1h-1zM12 2h1v1h-1zM18 2h1v1h-1zM27 2h1v1h-1zM34 2h1v1h-1zM36 2h1v1h-1zM42 2h1v1h-1zM44 2h1v1h-1zM98 2h1v1h-1zM106 2h1v1h-1zM114 2h1v1h-1zM116 2h1v1h-1zM122 2h1v1h-1zM124 2h1v1h-1zM130 2h1v1h-1zM146 2h1v1h-1zM148 2h1v1h-1zM10 3h2v1h-2zM18 3h2v1h-2zM27 3h1v1h-1zM34 3h2v1h-2zM43 3h1v1h-1zM99 3h1v1h-1zM106 3h1v1h-1zM114 3h1v1h-1zM116 3h1v1h-1zM122 3h2v1h-2zM130 3h2v1h-2zM146 3h1v1h-1zM148 3h1v1h-1zM10 4h1v1h-1zM12 4h1v1h-1zM18 4h1v1h-1zM27 4h1v1h-1zM34 4h1v1h-1zM36 4h1v1h-1zM43 4h1v1h-1zM100 4h1v1h-1zM106 4h1v1h-1zM114 4h1v1h-1zM116 4h1v1h-1zM122 4h1v1h-1zM124 4h1v1h-1zM130 4h1v1h-1zM146 4h1v1h-1zM148 4h1v1h-1zM10 5h1v1h-1zM12 5h1v1h-1zM18 5h3v1h-3zM27 5h1v1h-1zM34 5h1v1h-1zM36 5h1v1h-1zM43 5h1v1h-1zM98 5h2v1h-2zM107 5h2v1h-2zM115 5h1v1h-1zM122 5h1v1h-1zM124 5h1v1h-1zM130 5h3v1h-3zM146 5h3v1h-3zM71 73h1v1h-1zM70 74h1v1h-1zM72 74h1v1h-1zM69 75h1v1h-1zM73 75h1v1h-1zM70 76h1v1h-1zM72 76h1v1h-1zM71 77h1v1h-1zM73 112h5v1h-5zM72 113h1v1h-1zM78 113h1v1h-1zM71 114h1v1h-1zM79 114h1v1h-1zM71 115h10v1h-10zM72 116h1v1h-1zM79 116h1v1h-1zM72 117h1v1h-1zM74 117h1v1h-1zM77 117h1v1h-1zM79 117h1v1h-1zM72 118h1v1h-1zM75 118h2v1h-2zM79 118h1v1h-1zM73 119h1v1h-1zM78 119h1v1h-1zM69 120h2v1h-2zM72 120h2v1h-2zM76 120h2v1h-2zM79 120h2v1h-2zM68 121h1v1h-1zM71 121h2v1h-2zM78 121h1v1h-1zM81 121h3v1h-3zM69 122h2v1h-2zM79 122h2v1h-2zM84 122h1v1h-1zM71 123h2v1h-2zM78 123h2v1h-2zM85 123h1v1h-1zM72 124h1v1h-1zM75 124h2v1h-2zM79 124h1v1h-1zM85 124h1v1h-1zM72 125h1v1h-1zM74 125h1v1h-1zM77 125h1v1h-1zM79 125h6v1h-6zM71 126h1v1h-1zM74 126h1v1h-1zM77 126h1v1h-1zM80 126h1v1h-1zM84 126h1v1h-1zM71 127h4v1h-4zM77 127h4v1h-4zM84 127h1v1h-1z"/></g>
</g>
<rect x="15.5" y="45.5" width="481" height="433" fill="none" stroke="#303a48"/>
<text class="h" x="536" y="66">JOYP buttons (UART INPUT mask)</text>
<g class="k0"><rect x="536" y="84" width="108" height="26" rx="13" fill="#171c24" stroke="#303a48"/><text x="590" y="101" text-anchor="middle">Right</text></g>
<g><rect x="536" y="118" width="108" height="26" rx="13" fill="#171c24" stroke="#303a48"/><text x="590" y="135" text-anchor="middle">Left</text></g>
<g><rect x="536" y="152" width="108" height="26" rx="13" fill="#171c24" stroke="#303a48"/><text x="590" y="169" text-anchor="middle">Up</text></g>
<g><rect x="536" y="186" width="108" height="26" rx="13" fill="#171c24" stroke="#303a48"/><text x="590" y="203" text-anchor="middle">Down</text></g>
<g class="k4"><rect x="656" y="84" width="108" height="26" rx="13" fill="#171c24" stroke="#303a48"/><text x="710" y="101" text-anchor="middle">A</text></g>
<g class="k5"><rect x="656" y="118" width="108" height="26" rx="13" fill="#171c24" stroke="#303a48"/><text x="710" y="135" text-anchor="middle">B</text></g>
<g><rect x="656" y="152" width="108" height="26" rx="13" fill="#171c24" stroke="#303a48"/><text x="710" y="169" text-anchor="middle">Select</text></g>
<g class="k7"><rect x="656" y="186" width="108" height="26" rx="13" fill="#171c24" stroke="#303a48"/><text x="710" y="203" text-anchor="middle">Start</text></g>
<text class="mv33" x="536" y="234" opacity="0" xml:space="preserve"><tspan fill="#a9b6c7">host input --mask </tspan>33</text><text class="mv49" x="536" y="234" opacity="0" xml:space="preserve"><tspan fill="#a9b6c7">host input --mask </tspan>49</text><text class="mv128" x="536" y="234" opacity="0" xml:space="preserve"><tspan fill="#a9b6c7">host input --mask </tspan>128</text>
<text class="g0" x="536" y="274" opacity="0">1  TITLE screen: PRESS START</text><text class="g1" x="536" y="274" opacity="0">2  Start (128) → PLAY</text><text class="g2" x="536" y="274" opacity="0">3  Right+B (33): runs</text><text class="g3" x="536" y="274" opacity="0">4  Start (128) → PAUSED</text><text class="g4" x="536" y="274" opacity="0">5  Start (128): resumes</text><text class="g5" x="536" y="274" opacity="0">6  Right+B (33): runs on</text><text class="g6" x="536" y="274" opacity="0">7  Nears the gap</text><text class="g7" x="536" y="274" opacity="0">8  A (16): jumps the gap</text><text class="g8" x="536" y="274" opacity="0">9  Lands, keeps running</text><text class="g9" x="536" y="274" opacity="0">10  Right+B (33): runs on</text><text class="g10" x="536" y="274" opacity="1">11  Hits the patrol: RETRY</text>
<text class="h" x="16" y="504">Exact frames from src/dv/springtrail; every mode and mask above is the real reference state.</text>
</svg>
